M48
INCH,TZ
T1C0.0157
T2C0.0197
T3C0.0394
T4C0.0354
%
G90
G05
T1
X35925Y-28248
X44488Y-27756
T2
X35138Y-27953
X36319Y-29921
X37008Y-26870
X37638Y-25276
X37894Y-26476
X40748Y-28937
X41339Y-28937
X41929Y-28937
X42953Y-25118
X45000Y-28110
X45472Y-28740
X45492Y-25906
T3
X39945Y-26772
X40945Y-26772
X41945Y-26772
X42945Y-26772
X48000Y-24500
X48000Y-25500
X48000Y-30000
X48000Y-31000
X34750Y-24500
X34750Y-25500
T4
X34713Y-29331
X34713Y-30512
T0
M30
