G04 #@! TF.GenerationSoftware,KiCad,Pcbnew,5.0.2-bee76a0~70~ubuntu18.04.1*
G04 #@! TF.CreationDate,2019-03-01T14:14:17+01:00*
G04 #@! TF.ProjectId,SINE_STIMULUS_charger,53494e45-5f53-4544-994d-554c55535f63,rev?*
G04 #@! TF.SameCoordinates,Original*
G04 #@! TF.FileFunction,Paste,Top*
G04 #@! TF.FilePolarity,Positive*
%FSLAX46Y46*%
G04 Gerber Fmt 4.6, Leading zero omitted, Abs format (unit mm)*
G04 Created by KiCad (PCBNEW 5.0.2-bee76a0~70~ubuntu18.04.1) date ven. 01 mars 2019 14:14:17 CET*
%MOMM*%
%LPD*%
G01*
G04 APERTURE LIST*
%ADD10R,0.800100X0.899160*%
%ADD11R,6.000000X5.500000*%
%ADD12C,0.100000*%
%ADD13C,0.975000*%
%ADD14R,1.000000X1.000000*%
%ADD15R,0.450000X1.380000*%
%ADD16R,1.475000X2.100000*%
%ADD17R,2.375000X1.900000*%
%ADD18R,1.175000X1.900000*%
%ADD19C,0.650000*%
%ADD20R,0.900000X0.800000*%
%ADD21R,1.500000X0.700000*%
%ADD22R,0.800000X1.000000*%
G04 APERTURE END LIST*
D10*
G04 #@! TO.C,Q1*
X91550040Y-65249240D03*
X93449960Y-65249240D03*
X92500000Y-67349820D03*
G04 #@! TD*
D11*
G04 #@! TO.C,BT1*
X120300000Y-84000000D03*
X89700000Y-84000000D03*
G04 #@! TD*
D12*
G04 #@! TO.C,C1*
G36*
X97830142Y-64551174D02*
X97853803Y-64554684D01*
X97877007Y-64560496D01*
X97899529Y-64568554D01*
X97921153Y-64578782D01*
X97941670Y-64591079D01*
X97960883Y-64605329D01*
X97978607Y-64621393D01*
X97994671Y-64639117D01*
X98008921Y-64658330D01*
X98021218Y-64678847D01*
X98031446Y-64700471D01*
X98039504Y-64722993D01*
X98045316Y-64746197D01*
X98048826Y-64769858D01*
X98050000Y-64793750D01*
X98050000Y-65706250D01*
X98048826Y-65730142D01*
X98045316Y-65753803D01*
X98039504Y-65777007D01*
X98031446Y-65799529D01*
X98021218Y-65821153D01*
X98008921Y-65841670D01*
X97994671Y-65860883D01*
X97978607Y-65878607D01*
X97960883Y-65894671D01*
X97941670Y-65908921D01*
X97921153Y-65921218D01*
X97899529Y-65931446D01*
X97877007Y-65939504D01*
X97853803Y-65945316D01*
X97830142Y-65948826D01*
X97806250Y-65950000D01*
X97318750Y-65950000D01*
X97294858Y-65948826D01*
X97271197Y-65945316D01*
X97247993Y-65939504D01*
X97225471Y-65931446D01*
X97203847Y-65921218D01*
X97183330Y-65908921D01*
X97164117Y-65894671D01*
X97146393Y-65878607D01*
X97130329Y-65860883D01*
X97116079Y-65841670D01*
X97103782Y-65821153D01*
X97093554Y-65799529D01*
X97085496Y-65777007D01*
X97079684Y-65753803D01*
X97076174Y-65730142D01*
X97075000Y-65706250D01*
X97075000Y-64793750D01*
X97076174Y-64769858D01*
X97079684Y-64746197D01*
X97085496Y-64722993D01*
X97093554Y-64700471D01*
X97103782Y-64678847D01*
X97116079Y-64658330D01*
X97130329Y-64639117D01*
X97146393Y-64621393D01*
X97164117Y-64605329D01*
X97183330Y-64591079D01*
X97203847Y-64578782D01*
X97225471Y-64568554D01*
X97247993Y-64560496D01*
X97271197Y-64554684D01*
X97294858Y-64551174D01*
X97318750Y-64550000D01*
X97806250Y-64550000D01*
X97830142Y-64551174D01*
X97830142Y-64551174D01*
G37*
D13*
X97562500Y-65250000D03*
D12*
G36*
X99705142Y-64551174D02*
X99728803Y-64554684D01*
X99752007Y-64560496D01*
X99774529Y-64568554D01*
X99796153Y-64578782D01*
X99816670Y-64591079D01*
X99835883Y-64605329D01*
X99853607Y-64621393D01*
X99869671Y-64639117D01*
X99883921Y-64658330D01*
X99896218Y-64678847D01*
X99906446Y-64700471D01*
X99914504Y-64722993D01*
X99920316Y-64746197D01*
X99923826Y-64769858D01*
X99925000Y-64793750D01*
X99925000Y-65706250D01*
X99923826Y-65730142D01*
X99920316Y-65753803D01*
X99914504Y-65777007D01*
X99906446Y-65799529D01*
X99896218Y-65821153D01*
X99883921Y-65841670D01*
X99869671Y-65860883D01*
X99853607Y-65878607D01*
X99835883Y-65894671D01*
X99816670Y-65908921D01*
X99796153Y-65921218D01*
X99774529Y-65931446D01*
X99752007Y-65939504D01*
X99728803Y-65945316D01*
X99705142Y-65948826D01*
X99681250Y-65950000D01*
X99193750Y-65950000D01*
X99169858Y-65948826D01*
X99146197Y-65945316D01*
X99122993Y-65939504D01*
X99100471Y-65931446D01*
X99078847Y-65921218D01*
X99058330Y-65908921D01*
X99039117Y-65894671D01*
X99021393Y-65878607D01*
X99005329Y-65860883D01*
X98991079Y-65841670D01*
X98978782Y-65821153D01*
X98968554Y-65799529D01*
X98960496Y-65777007D01*
X98954684Y-65753803D01*
X98951174Y-65730142D01*
X98950000Y-65706250D01*
X98950000Y-64793750D01*
X98951174Y-64769858D01*
X98954684Y-64746197D01*
X98960496Y-64722993D01*
X98968554Y-64700471D01*
X98978782Y-64678847D01*
X98991079Y-64658330D01*
X99005329Y-64639117D01*
X99021393Y-64621393D01*
X99039117Y-64605329D01*
X99058330Y-64591079D01*
X99078847Y-64578782D01*
X99100471Y-64568554D01*
X99122993Y-64560496D01*
X99146197Y-64554684D01*
X99169858Y-64551174D01*
X99193750Y-64550000D01*
X99681250Y-64550000D01*
X99705142Y-64551174D01*
X99705142Y-64551174D01*
G37*
D13*
X99437500Y-65250000D03*
G04 #@! TD*
D12*
G04 #@! TO.C,C2*
G36*
X90980142Y-69888675D02*
X91003803Y-69892185D01*
X91027007Y-69897997D01*
X91049529Y-69906055D01*
X91071153Y-69916283D01*
X91091670Y-69928580D01*
X91110883Y-69942830D01*
X91128607Y-69958894D01*
X91144671Y-69976618D01*
X91158921Y-69995831D01*
X91171218Y-70016348D01*
X91181446Y-70037972D01*
X91189504Y-70060494D01*
X91195316Y-70083698D01*
X91198826Y-70107359D01*
X91200000Y-70131251D01*
X91200000Y-70618751D01*
X91198826Y-70642643D01*
X91195316Y-70666304D01*
X91189504Y-70689508D01*
X91181446Y-70712030D01*
X91171218Y-70733654D01*
X91158921Y-70754171D01*
X91144671Y-70773384D01*
X91128607Y-70791108D01*
X91110883Y-70807172D01*
X91091670Y-70821422D01*
X91071153Y-70833719D01*
X91049529Y-70843947D01*
X91027007Y-70852005D01*
X91003803Y-70857817D01*
X90980142Y-70861327D01*
X90956250Y-70862501D01*
X90043750Y-70862501D01*
X90019858Y-70861327D01*
X89996197Y-70857817D01*
X89972993Y-70852005D01*
X89950471Y-70843947D01*
X89928847Y-70833719D01*
X89908330Y-70821422D01*
X89889117Y-70807172D01*
X89871393Y-70791108D01*
X89855329Y-70773384D01*
X89841079Y-70754171D01*
X89828782Y-70733654D01*
X89818554Y-70712030D01*
X89810496Y-70689508D01*
X89804684Y-70666304D01*
X89801174Y-70642643D01*
X89800000Y-70618751D01*
X89800000Y-70131251D01*
X89801174Y-70107359D01*
X89804684Y-70083698D01*
X89810496Y-70060494D01*
X89818554Y-70037972D01*
X89828782Y-70016348D01*
X89841079Y-69995831D01*
X89855329Y-69976618D01*
X89871393Y-69958894D01*
X89889117Y-69942830D01*
X89908330Y-69928580D01*
X89928847Y-69916283D01*
X89950471Y-69906055D01*
X89972993Y-69897997D01*
X89996197Y-69892185D01*
X90019858Y-69888675D01*
X90043750Y-69887501D01*
X90956250Y-69887501D01*
X90980142Y-69888675D01*
X90980142Y-69888675D01*
G37*
D13*
X90500000Y-70375001D03*
D12*
G36*
X90980142Y-68013675D02*
X91003803Y-68017185D01*
X91027007Y-68022997D01*
X91049529Y-68031055D01*
X91071153Y-68041283D01*
X91091670Y-68053580D01*
X91110883Y-68067830D01*
X91128607Y-68083894D01*
X91144671Y-68101618D01*
X91158921Y-68120831D01*
X91171218Y-68141348D01*
X91181446Y-68162972D01*
X91189504Y-68185494D01*
X91195316Y-68208698D01*
X91198826Y-68232359D01*
X91200000Y-68256251D01*
X91200000Y-68743751D01*
X91198826Y-68767643D01*
X91195316Y-68791304D01*
X91189504Y-68814508D01*
X91181446Y-68837030D01*
X91171218Y-68858654D01*
X91158921Y-68879171D01*
X91144671Y-68898384D01*
X91128607Y-68916108D01*
X91110883Y-68932172D01*
X91091670Y-68946422D01*
X91071153Y-68958719D01*
X91049529Y-68968947D01*
X91027007Y-68977005D01*
X91003803Y-68982817D01*
X90980142Y-68986327D01*
X90956250Y-68987501D01*
X90043750Y-68987501D01*
X90019858Y-68986327D01*
X89996197Y-68982817D01*
X89972993Y-68977005D01*
X89950471Y-68968947D01*
X89928847Y-68958719D01*
X89908330Y-68946422D01*
X89889117Y-68932172D01*
X89871393Y-68916108D01*
X89855329Y-68898384D01*
X89841079Y-68879171D01*
X89828782Y-68858654D01*
X89818554Y-68837030D01*
X89810496Y-68814508D01*
X89804684Y-68791304D01*
X89801174Y-68767643D01*
X89800000Y-68743751D01*
X89800000Y-68256251D01*
X89801174Y-68232359D01*
X89804684Y-68208698D01*
X89810496Y-68185494D01*
X89818554Y-68162972D01*
X89828782Y-68141348D01*
X89841079Y-68120831D01*
X89855329Y-68101618D01*
X89871393Y-68083894D01*
X89889117Y-68067830D01*
X89908330Y-68053580D01*
X89928847Y-68041283D01*
X89950471Y-68031055D01*
X89972993Y-68022997D01*
X89996197Y-68017185D01*
X90019858Y-68013675D01*
X90043750Y-68012501D01*
X90956250Y-68012501D01*
X90980142Y-68013675D01*
X90980142Y-68013675D01*
G37*
D13*
X90500000Y-68500001D03*
G04 #@! TD*
D12*
G04 #@! TO.C,C3*
G36*
X118205142Y-70801174D02*
X118228803Y-70804684D01*
X118252007Y-70810496D01*
X118274529Y-70818554D01*
X118296153Y-70828782D01*
X118316670Y-70841079D01*
X118335883Y-70855329D01*
X118353607Y-70871393D01*
X118369671Y-70889117D01*
X118383921Y-70908330D01*
X118396218Y-70928847D01*
X118406446Y-70950471D01*
X118414504Y-70972993D01*
X118420316Y-70996197D01*
X118423826Y-71019858D01*
X118425000Y-71043750D01*
X118425000Y-71956250D01*
X118423826Y-71980142D01*
X118420316Y-72003803D01*
X118414504Y-72027007D01*
X118406446Y-72049529D01*
X118396218Y-72071153D01*
X118383921Y-72091670D01*
X118369671Y-72110883D01*
X118353607Y-72128607D01*
X118335883Y-72144671D01*
X118316670Y-72158921D01*
X118296153Y-72171218D01*
X118274529Y-72181446D01*
X118252007Y-72189504D01*
X118228803Y-72195316D01*
X118205142Y-72198826D01*
X118181250Y-72200000D01*
X117693750Y-72200000D01*
X117669858Y-72198826D01*
X117646197Y-72195316D01*
X117622993Y-72189504D01*
X117600471Y-72181446D01*
X117578847Y-72171218D01*
X117558330Y-72158921D01*
X117539117Y-72144671D01*
X117521393Y-72128607D01*
X117505329Y-72110883D01*
X117491079Y-72091670D01*
X117478782Y-72071153D01*
X117468554Y-72049529D01*
X117460496Y-72027007D01*
X117454684Y-72003803D01*
X117451174Y-71980142D01*
X117450000Y-71956250D01*
X117450000Y-71043750D01*
X117451174Y-71019858D01*
X117454684Y-70996197D01*
X117460496Y-70972993D01*
X117468554Y-70950471D01*
X117478782Y-70928847D01*
X117491079Y-70908330D01*
X117505329Y-70889117D01*
X117521393Y-70871393D01*
X117539117Y-70855329D01*
X117558330Y-70841079D01*
X117578847Y-70828782D01*
X117600471Y-70818554D01*
X117622993Y-70810496D01*
X117646197Y-70804684D01*
X117669858Y-70801174D01*
X117693750Y-70800000D01*
X118181250Y-70800000D01*
X118205142Y-70801174D01*
X118205142Y-70801174D01*
G37*
D13*
X117937500Y-71500000D03*
D12*
G36*
X116330142Y-70801174D02*
X116353803Y-70804684D01*
X116377007Y-70810496D01*
X116399529Y-70818554D01*
X116421153Y-70828782D01*
X116441670Y-70841079D01*
X116460883Y-70855329D01*
X116478607Y-70871393D01*
X116494671Y-70889117D01*
X116508921Y-70908330D01*
X116521218Y-70928847D01*
X116531446Y-70950471D01*
X116539504Y-70972993D01*
X116545316Y-70996197D01*
X116548826Y-71019858D01*
X116550000Y-71043750D01*
X116550000Y-71956250D01*
X116548826Y-71980142D01*
X116545316Y-72003803D01*
X116539504Y-72027007D01*
X116531446Y-72049529D01*
X116521218Y-72071153D01*
X116508921Y-72091670D01*
X116494671Y-72110883D01*
X116478607Y-72128607D01*
X116460883Y-72144671D01*
X116441670Y-72158921D01*
X116421153Y-72171218D01*
X116399529Y-72181446D01*
X116377007Y-72189504D01*
X116353803Y-72195316D01*
X116330142Y-72198826D01*
X116306250Y-72200000D01*
X115818750Y-72200000D01*
X115794858Y-72198826D01*
X115771197Y-72195316D01*
X115747993Y-72189504D01*
X115725471Y-72181446D01*
X115703847Y-72171218D01*
X115683330Y-72158921D01*
X115664117Y-72144671D01*
X115646393Y-72128607D01*
X115630329Y-72110883D01*
X115616079Y-72091670D01*
X115603782Y-72071153D01*
X115593554Y-72049529D01*
X115585496Y-72027007D01*
X115579684Y-72003803D01*
X115576174Y-71980142D01*
X115575000Y-71956250D01*
X115575000Y-71043750D01*
X115576174Y-71019858D01*
X115579684Y-70996197D01*
X115585496Y-70972993D01*
X115593554Y-70950471D01*
X115603782Y-70928847D01*
X115616079Y-70908330D01*
X115630329Y-70889117D01*
X115646393Y-70871393D01*
X115664117Y-70855329D01*
X115683330Y-70841079D01*
X115703847Y-70828782D01*
X115725471Y-70818554D01*
X115747993Y-70810496D01*
X115771197Y-70804684D01*
X115794858Y-70801174D01*
X115818750Y-70800000D01*
X116306250Y-70800000D01*
X116330142Y-70801174D01*
X116330142Y-70801174D01*
G37*
D13*
X116062500Y-71500000D03*
G04 #@! TD*
D12*
G04 #@! TO.C,C4*
G36*
X116330142Y-66801174D02*
X116353803Y-66804684D01*
X116377007Y-66810496D01*
X116399529Y-66818554D01*
X116421153Y-66828782D01*
X116441670Y-66841079D01*
X116460883Y-66855329D01*
X116478607Y-66871393D01*
X116494671Y-66889117D01*
X116508921Y-66908330D01*
X116521218Y-66928847D01*
X116531446Y-66950471D01*
X116539504Y-66972993D01*
X116545316Y-66996197D01*
X116548826Y-67019858D01*
X116550000Y-67043750D01*
X116550000Y-67956250D01*
X116548826Y-67980142D01*
X116545316Y-68003803D01*
X116539504Y-68027007D01*
X116531446Y-68049529D01*
X116521218Y-68071153D01*
X116508921Y-68091670D01*
X116494671Y-68110883D01*
X116478607Y-68128607D01*
X116460883Y-68144671D01*
X116441670Y-68158921D01*
X116421153Y-68171218D01*
X116399529Y-68181446D01*
X116377007Y-68189504D01*
X116353803Y-68195316D01*
X116330142Y-68198826D01*
X116306250Y-68200000D01*
X115818750Y-68200000D01*
X115794858Y-68198826D01*
X115771197Y-68195316D01*
X115747993Y-68189504D01*
X115725471Y-68181446D01*
X115703847Y-68171218D01*
X115683330Y-68158921D01*
X115664117Y-68144671D01*
X115646393Y-68128607D01*
X115630329Y-68110883D01*
X115616079Y-68091670D01*
X115603782Y-68071153D01*
X115593554Y-68049529D01*
X115585496Y-68027007D01*
X115579684Y-68003803D01*
X115576174Y-67980142D01*
X115575000Y-67956250D01*
X115575000Y-67043750D01*
X115576174Y-67019858D01*
X115579684Y-66996197D01*
X115585496Y-66972993D01*
X115593554Y-66950471D01*
X115603782Y-66928847D01*
X115616079Y-66908330D01*
X115630329Y-66889117D01*
X115646393Y-66871393D01*
X115664117Y-66855329D01*
X115683330Y-66841079D01*
X115703847Y-66828782D01*
X115725471Y-66818554D01*
X115747993Y-66810496D01*
X115771197Y-66804684D01*
X115794858Y-66801174D01*
X115818750Y-66800000D01*
X116306250Y-66800000D01*
X116330142Y-66801174D01*
X116330142Y-66801174D01*
G37*
D13*
X116062500Y-67500000D03*
D12*
G36*
X118205142Y-66801174D02*
X118228803Y-66804684D01*
X118252007Y-66810496D01*
X118274529Y-66818554D01*
X118296153Y-66828782D01*
X118316670Y-66841079D01*
X118335883Y-66855329D01*
X118353607Y-66871393D01*
X118369671Y-66889117D01*
X118383921Y-66908330D01*
X118396218Y-66928847D01*
X118406446Y-66950471D01*
X118414504Y-66972993D01*
X118420316Y-66996197D01*
X118423826Y-67019858D01*
X118425000Y-67043750D01*
X118425000Y-67956250D01*
X118423826Y-67980142D01*
X118420316Y-68003803D01*
X118414504Y-68027007D01*
X118406446Y-68049529D01*
X118396218Y-68071153D01*
X118383921Y-68091670D01*
X118369671Y-68110883D01*
X118353607Y-68128607D01*
X118335883Y-68144671D01*
X118316670Y-68158921D01*
X118296153Y-68171218D01*
X118274529Y-68181446D01*
X118252007Y-68189504D01*
X118228803Y-68195316D01*
X118205142Y-68198826D01*
X118181250Y-68200000D01*
X117693750Y-68200000D01*
X117669858Y-68198826D01*
X117646197Y-68195316D01*
X117622993Y-68189504D01*
X117600471Y-68181446D01*
X117578847Y-68171218D01*
X117558330Y-68158921D01*
X117539117Y-68144671D01*
X117521393Y-68128607D01*
X117505329Y-68110883D01*
X117491079Y-68091670D01*
X117478782Y-68071153D01*
X117468554Y-68049529D01*
X117460496Y-68027007D01*
X117454684Y-68003803D01*
X117451174Y-67980142D01*
X117450000Y-67956250D01*
X117450000Y-67043750D01*
X117451174Y-67019858D01*
X117454684Y-66996197D01*
X117460496Y-66972993D01*
X117468554Y-66950471D01*
X117478782Y-66928847D01*
X117491079Y-66908330D01*
X117505329Y-66889117D01*
X117521393Y-66871393D01*
X117539117Y-66855329D01*
X117558330Y-66841079D01*
X117578847Y-66828782D01*
X117600471Y-66818554D01*
X117622993Y-66810496D01*
X117646197Y-66804684D01*
X117669858Y-66801174D01*
X117693750Y-66800000D01*
X118181250Y-66800000D01*
X118205142Y-66801174D01*
X118205142Y-66801174D01*
G37*
D13*
X117937500Y-67500000D03*
G04 #@! TD*
D14*
G04 #@! TO.C,D1*
X91250000Y-63250000D03*
X93750000Y-63250000D03*
G04 #@! TD*
D15*
G04 #@! TO.C,J1*
X106300000Y-64110000D03*
X105650000Y-64110000D03*
X105000000Y-64110000D03*
X104350000Y-64110000D03*
X103700000Y-64110000D03*
D16*
X107462500Y-63750000D03*
X102537500Y-63750000D03*
D17*
X107910000Y-61450000D03*
X102090000Y-61450000D03*
D18*
X105840000Y-61450000D03*
X104160000Y-61450000D03*
G04 #@! TD*
D12*
G04 #@! TO.C,R1*
G36*
X95623632Y-70012449D02*
X95647293Y-70015959D01*
X95670497Y-70021771D01*
X95693019Y-70029829D01*
X95714643Y-70040057D01*
X95735160Y-70052354D01*
X95754373Y-70066604D01*
X95772097Y-70082668D01*
X96417332Y-70727903D01*
X96433396Y-70745627D01*
X96447646Y-70764840D01*
X96459943Y-70785357D01*
X96470171Y-70806981D01*
X96478229Y-70829503D01*
X96484041Y-70852707D01*
X96487551Y-70876368D01*
X96488725Y-70900260D01*
X96487551Y-70924152D01*
X96484041Y-70947813D01*
X96478229Y-70971017D01*
X96470171Y-70993539D01*
X96459943Y-71015163D01*
X96447646Y-71035680D01*
X96433396Y-71054893D01*
X96417332Y-71072617D01*
X96072617Y-71417332D01*
X96054893Y-71433396D01*
X96035680Y-71447646D01*
X96015163Y-71459943D01*
X95993539Y-71470171D01*
X95971017Y-71478229D01*
X95947813Y-71484041D01*
X95924152Y-71487551D01*
X95900260Y-71488725D01*
X95876368Y-71487551D01*
X95852707Y-71484041D01*
X95829503Y-71478229D01*
X95806981Y-71470171D01*
X95785357Y-71459943D01*
X95764840Y-71447646D01*
X95745627Y-71433396D01*
X95727903Y-71417332D01*
X95082668Y-70772097D01*
X95066604Y-70754373D01*
X95052354Y-70735160D01*
X95040057Y-70714643D01*
X95029829Y-70693019D01*
X95021771Y-70670497D01*
X95015959Y-70647293D01*
X95012449Y-70623632D01*
X95011275Y-70599740D01*
X95012449Y-70575848D01*
X95015959Y-70552187D01*
X95021771Y-70528983D01*
X95029829Y-70506461D01*
X95040057Y-70484837D01*
X95052354Y-70464320D01*
X95066604Y-70445107D01*
X95082668Y-70427383D01*
X95427383Y-70082668D01*
X95445107Y-70066604D01*
X95464320Y-70052354D01*
X95484837Y-70040057D01*
X95506461Y-70029829D01*
X95528983Y-70021771D01*
X95552187Y-70015959D01*
X95575848Y-70012449D01*
X95599740Y-70011275D01*
X95623632Y-70012449D01*
X95623632Y-70012449D01*
G37*
D13*
X95750000Y-70750000D03*
D12*
G36*
X96949458Y-68686623D02*
X96973119Y-68690133D01*
X96996323Y-68695945D01*
X97018845Y-68704003D01*
X97040469Y-68714231D01*
X97060986Y-68726528D01*
X97080199Y-68740778D01*
X97097923Y-68756842D01*
X97743158Y-69402077D01*
X97759222Y-69419801D01*
X97773472Y-69439014D01*
X97785769Y-69459531D01*
X97795997Y-69481155D01*
X97804055Y-69503677D01*
X97809867Y-69526881D01*
X97813377Y-69550542D01*
X97814551Y-69574434D01*
X97813377Y-69598326D01*
X97809867Y-69621987D01*
X97804055Y-69645191D01*
X97795997Y-69667713D01*
X97785769Y-69689337D01*
X97773472Y-69709854D01*
X97759222Y-69729067D01*
X97743158Y-69746791D01*
X97398443Y-70091506D01*
X97380719Y-70107570D01*
X97361506Y-70121820D01*
X97340989Y-70134117D01*
X97319365Y-70144345D01*
X97296843Y-70152403D01*
X97273639Y-70158215D01*
X97249978Y-70161725D01*
X97226086Y-70162899D01*
X97202194Y-70161725D01*
X97178533Y-70158215D01*
X97155329Y-70152403D01*
X97132807Y-70144345D01*
X97111183Y-70134117D01*
X97090666Y-70121820D01*
X97071453Y-70107570D01*
X97053729Y-70091506D01*
X96408494Y-69446271D01*
X96392430Y-69428547D01*
X96378180Y-69409334D01*
X96365883Y-69388817D01*
X96355655Y-69367193D01*
X96347597Y-69344671D01*
X96341785Y-69321467D01*
X96338275Y-69297806D01*
X96337101Y-69273914D01*
X96338275Y-69250022D01*
X96341785Y-69226361D01*
X96347597Y-69203157D01*
X96355655Y-69180635D01*
X96365883Y-69159011D01*
X96378180Y-69138494D01*
X96392430Y-69119281D01*
X96408494Y-69101557D01*
X96753209Y-68756842D01*
X96770933Y-68740778D01*
X96790146Y-68726528D01*
X96810663Y-68714231D01*
X96832287Y-68704003D01*
X96854809Y-68695945D01*
X96878013Y-68690133D01*
X96901674Y-68686623D01*
X96925566Y-68685449D01*
X96949458Y-68686623D01*
X96949458Y-68686623D01*
G37*
D13*
X97075826Y-69424174D03*
G04 #@! TD*
D12*
G04 #@! TO.C,R2*
G36*
X111080142Y-64551174D02*
X111103803Y-64554684D01*
X111127007Y-64560496D01*
X111149529Y-64568554D01*
X111171153Y-64578782D01*
X111191670Y-64591079D01*
X111210883Y-64605329D01*
X111228607Y-64621393D01*
X111244671Y-64639117D01*
X111258921Y-64658330D01*
X111271218Y-64678847D01*
X111281446Y-64700471D01*
X111289504Y-64722993D01*
X111295316Y-64746197D01*
X111298826Y-64769858D01*
X111300000Y-64793750D01*
X111300000Y-65706250D01*
X111298826Y-65730142D01*
X111295316Y-65753803D01*
X111289504Y-65777007D01*
X111281446Y-65799529D01*
X111271218Y-65821153D01*
X111258921Y-65841670D01*
X111244671Y-65860883D01*
X111228607Y-65878607D01*
X111210883Y-65894671D01*
X111191670Y-65908921D01*
X111171153Y-65921218D01*
X111149529Y-65931446D01*
X111127007Y-65939504D01*
X111103803Y-65945316D01*
X111080142Y-65948826D01*
X111056250Y-65950000D01*
X110568750Y-65950000D01*
X110544858Y-65948826D01*
X110521197Y-65945316D01*
X110497993Y-65939504D01*
X110475471Y-65931446D01*
X110453847Y-65921218D01*
X110433330Y-65908921D01*
X110414117Y-65894671D01*
X110396393Y-65878607D01*
X110380329Y-65860883D01*
X110366079Y-65841670D01*
X110353782Y-65821153D01*
X110343554Y-65799529D01*
X110335496Y-65777007D01*
X110329684Y-65753803D01*
X110326174Y-65730142D01*
X110325000Y-65706250D01*
X110325000Y-64793750D01*
X110326174Y-64769858D01*
X110329684Y-64746197D01*
X110335496Y-64722993D01*
X110343554Y-64700471D01*
X110353782Y-64678847D01*
X110366079Y-64658330D01*
X110380329Y-64639117D01*
X110396393Y-64621393D01*
X110414117Y-64605329D01*
X110433330Y-64591079D01*
X110453847Y-64578782D01*
X110475471Y-64568554D01*
X110497993Y-64560496D01*
X110521197Y-64554684D01*
X110544858Y-64551174D01*
X110568750Y-64550000D01*
X111056250Y-64550000D01*
X111080142Y-64551174D01*
X111080142Y-64551174D01*
G37*
D13*
X110812500Y-65250000D03*
D12*
G36*
X112955142Y-64551174D02*
X112978803Y-64554684D01*
X113002007Y-64560496D01*
X113024529Y-64568554D01*
X113046153Y-64578782D01*
X113066670Y-64591079D01*
X113085883Y-64605329D01*
X113103607Y-64621393D01*
X113119671Y-64639117D01*
X113133921Y-64658330D01*
X113146218Y-64678847D01*
X113156446Y-64700471D01*
X113164504Y-64722993D01*
X113170316Y-64746197D01*
X113173826Y-64769858D01*
X113175000Y-64793750D01*
X113175000Y-65706250D01*
X113173826Y-65730142D01*
X113170316Y-65753803D01*
X113164504Y-65777007D01*
X113156446Y-65799529D01*
X113146218Y-65821153D01*
X113133921Y-65841670D01*
X113119671Y-65860883D01*
X113103607Y-65878607D01*
X113085883Y-65894671D01*
X113066670Y-65908921D01*
X113046153Y-65921218D01*
X113024529Y-65931446D01*
X113002007Y-65939504D01*
X112978803Y-65945316D01*
X112955142Y-65948826D01*
X112931250Y-65950000D01*
X112443750Y-65950000D01*
X112419858Y-65948826D01*
X112396197Y-65945316D01*
X112372993Y-65939504D01*
X112350471Y-65931446D01*
X112328847Y-65921218D01*
X112308330Y-65908921D01*
X112289117Y-65894671D01*
X112271393Y-65878607D01*
X112255329Y-65860883D01*
X112241079Y-65841670D01*
X112228782Y-65821153D01*
X112218554Y-65799529D01*
X112210496Y-65777007D01*
X112204684Y-65753803D01*
X112201174Y-65730142D01*
X112200000Y-65706250D01*
X112200000Y-64793750D01*
X112201174Y-64769858D01*
X112204684Y-64746197D01*
X112210496Y-64722993D01*
X112218554Y-64700471D01*
X112228782Y-64678847D01*
X112241079Y-64658330D01*
X112255329Y-64639117D01*
X112271393Y-64621393D01*
X112289117Y-64605329D01*
X112308330Y-64591079D01*
X112328847Y-64578782D01*
X112350471Y-64568554D01*
X112372993Y-64560496D01*
X112396197Y-64554684D01*
X112419858Y-64551174D01*
X112443750Y-64550000D01*
X112931250Y-64550000D01*
X112955142Y-64551174D01*
X112955142Y-64551174D01*
G37*
D13*
X112687500Y-65250000D03*
G04 #@! TD*
D12*
G04 #@! TO.C,R3*
G36*
X116330142Y-68801174D02*
X116353803Y-68804684D01*
X116377007Y-68810496D01*
X116399529Y-68818554D01*
X116421153Y-68828782D01*
X116441670Y-68841079D01*
X116460883Y-68855329D01*
X116478607Y-68871393D01*
X116494671Y-68889117D01*
X116508921Y-68908330D01*
X116521218Y-68928847D01*
X116531446Y-68950471D01*
X116539504Y-68972993D01*
X116545316Y-68996197D01*
X116548826Y-69019858D01*
X116550000Y-69043750D01*
X116550000Y-69956250D01*
X116548826Y-69980142D01*
X116545316Y-70003803D01*
X116539504Y-70027007D01*
X116531446Y-70049529D01*
X116521218Y-70071153D01*
X116508921Y-70091670D01*
X116494671Y-70110883D01*
X116478607Y-70128607D01*
X116460883Y-70144671D01*
X116441670Y-70158921D01*
X116421153Y-70171218D01*
X116399529Y-70181446D01*
X116377007Y-70189504D01*
X116353803Y-70195316D01*
X116330142Y-70198826D01*
X116306250Y-70200000D01*
X115818750Y-70200000D01*
X115794858Y-70198826D01*
X115771197Y-70195316D01*
X115747993Y-70189504D01*
X115725471Y-70181446D01*
X115703847Y-70171218D01*
X115683330Y-70158921D01*
X115664117Y-70144671D01*
X115646393Y-70128607D01*
X115630329Y-70110883D01*
X115616079Y-70091670D01*
X115603782Y-70071153D01*
X115593554Y-70049529D01*
X115585496Y-70027007D01*
X115579684Y-70003803D01*
X115576174Y-69980142D01*
X115575000Y-69956250D01*
X115575000Y-69043750D01*
X115576174Y-69019858D01*
X115579684Y-68996197D01*
X115585496Y-68972993D01*
X115593554Y-68950471D01*
X115603782Y-68928847D01*
X115616079Y-68908330D01*
X115630329Y-68889117D01*
X115646393Y-68871393D01*
X115664117Y-68855329D01*
X115683330Y-68841079D01*
X115703847Y-68828782D01*
X115725471Y-68818554D01*
X115747993Y-68810496D01*
X115771197Y-68804684D01*
X115794858Y-68801174D01*
X115818750Y-68800000D01*
X116306250Y-68800000D01*
X116330142Y-68801174D01*
X116330142Y-68801174D01*
G37*
D13*
X116062500Y-69500000D03*
D12*
G36*
X118205142Y-68801174D02*
X118228803Y-68804684D01*
X118252007Y-68810496D01*
X118274529Y-68818554D01*
X118296153Y-68828782D01*
X118316670Y-68841079D01*
X118335883Y-68855329D01*
X118353607Y-68871393D01*
X118369671Y-68889117D01*
X118383921Y-68908330D01*
X118396218Y-68928847D01*
X118406446Y-68950471D01*
X118414504Y-68972993D01*
X118420316Y-68996197D01*
X118423826Y-69019858D01*
X118425000Y-69043750D01*
X118425000Y-69956250D01*
X118423826Y-69980142D01*
X118420316Y-70003803D01*
X118414504Y-70027007D01*
X118406446Y-70049529D01*
X118396218Y-70071153D01*
X118383921Y-70091670D01*
X118369671Y-70110883D01*
X118353607Y-70128607D01*
X118335883Y-70144671D01*
X118316670Y-70158921D01*
X118296153Y-70171218D01*
X118274529Y-70181446D01*
X118252007Y-70189504D01*
X118228803Y-70195316D01*
X118205142Y-70198826D01*
X118181250Y-70200000D01*
X117693750Y-70200000D01*
X117669858Y-70198826D01*
X117646197Y-70195316D01*
X117622993Y-70189504D01*
X117600471Y-70181446D01*
X117578847Y-70171218D01*
X117558330Y-70158921D01*
X117539117Y-70144671D01*
X117521393Y-70128607D01*
X117505329Y-70110883D01*
X117491079Y-70091670D01*
X117478782Y-70071153D01*
X117468554Y-70049529D01*
X117460496Y-70027007D01*
X117454684Y-70003803D01*
X117451174Y-69980142D01*
X117450000Y-69956250D01*
X117450000Y-69043750D01*
X117451174Y-69019858D01*
X117454684Y-68996197D01*
X117460496Y-68972993D01*
X117468554Y-68950471D01*
X117478782Y-68928847D01*
X117491079Y-68908330D01*
X117505329Y-68889117D01*
X117521393Y-68871393D01*
X117539117Y-68855329D01*
X117558330Y-68841079D01*
X117578847Y-68828782D01*
X117600471Y-68818554D01*
X117622993Y-68810496D01*
X117646197Y-68804684D01*
X117669858Y-68801174D01*
X117693750Y-68800000D01*
X118181250Y-68800000D01*
X118205142Y-68801174D01*
X118205142Y-68801174D01*
G37*
D13*
X117937500Y-69500000D03*
G04 #@! TD*
D19*
G04 #@! TO.C,U1*
X92328248Y-73328249D03*
D12*
G36*
X92183291Y-73932825D02*
X91723672Y-73473206D01*
X92473205Y-72723673D01*
X92932824Y-73183292D01*
X92183291Y-73932825D01*
X92183291Y-73932825D01*
G37*
D19*
X93000000Y-74000000D03*
D12*
G36*
X92855043Y-74604576D02*
X92395424Y-74144957D01*
X93144957Y-73395424D01*
X93604576Y-73855043D01*
X92855043Y-74604576D01*
X92855043Y-74604576D01*
G37*
D19*
X93671751Y-74671752D03*
D12*
G36*
X93526794Y-75276328D02*
X93067175Y-74816709D01*
X93816708Y-74067176D01*
X94276327Y-74526795D01*
X93526794Y-75276328D01*
X93526794Y-75276328D01*
G37*
D19*
X95227386Y-73116117D03*
D12*
G36*
X95082429Y-73720693D02*
X94622810Y-73261074D01*
X95372343Y-72511541D01*
X95831962Y-72971160D01*
X95082429Y-73720693D01*
X95082429Y-73720693D01*
G37*
D19*
X93883883Y-71772614D03*
D12*
G36*
X93738926Y-72377190D02*
X93279307Y-71917571D01*
X94028840Y-71168038D01*
X94488459Y-71627657D01*
X93738926Y-72377190D01*
X93738926Y-72377190D01*
G37*
G04 #@! TD*
D20*
G04 #@! TO.C,U2*
X122000000Y-71200000D03*
X122000000Y-69300000D03*
X120000000Y-70250000D03*
G04 #@! TD*
D12*
G04 #@! TO.C,D2*
G36*
X111017643Y-60551174D02*
X111041304Y-60554684D01*
X111064508Y-60560496D01*
X111087030Y-60568554D01*
X111108654Y-60578782D01*
X111129171Y-60591079D01*
X111148384Y-60605329D01*
X111166108Y-60621393D01*
X111182172Y-60639117D01*
X111196422Y-60658330D01*
X111208719Y-60678847D01*
X111218947Y-60700471D01*
X111227005Y-60722993D01*
X111232817Y-60746197D01*
X111236327Y-60769858D01*
X111237501Y-60793750D01*
X111237501Y-61706250D01*
X111236327Y-61730142D01*
X111232817Y-61753803D01*
X111227005Y-61777007D01*
X111218947Y-61799529D01*
X111208719Y-61821153D01*
X111196422Y-61841670D01*
X111182172Y-61860883D01*
X111166108Y-61878607D01*
X111148384Y-61894671D01*
X111129171Y-61908921D01*
X111108654Y-61921218D01*
X111087030Y-61931446D01*
X111064508Y-61939504D01*
X111041304Y-61945316D01*
X111017643Y-61948826D01*
X110993751Y-61950000D01*
X110506251Y-61950000D01*
X110482359Y-61948826D01*
X110458698Y-61945316D01*
X110435494Y-61939504D01*
X110412972Y-61931446D01*
X110391348Y-61921218D01*
X110370831Y-61908921D01*
X110351618Y-61894671D01*
X110333894Y-61878607D01*
X110317830Y-61860883D01*
X110303580Y-61841670D01*
X110291283Y-61821153D01*
X110281055Y-61799529D01*
X110272997Y-61777007D01*
X110267185Y-61753803D01*
X110263675Y-61730142D01*
X110262501Y-61706250D01*
X110262501Y-60793750D01*
X110263675Y-60769858D01*
X110267185Y-60746197D01*
X110272997Y-60722993D01*
X110281055Y-60700471D01*
X110291283Y-60678847D01*
X110303580Y-60658330D01*
X110317830Y-60639117D01*
X110333894Y-60621393D01*
X110351618Y-60605329D01*
X110370831Y-60591079D01*
X110391348Y-60578782D01*
X110412972Y-60568554D01*
X110435494Y-60560496D01*
X110458698Y-60554684D01*
X110482359Y-60551174D01*
X110506251Y-60550000D01*
X110993751Y-60550000D01*
X111017643Y-60551174D01*
X111017643Y-60551174D01*
G37*
D13*
X110750001Y-61250000D03*
D12*
G36*
X112892643Y-60551174D02*
X112916304Y-60554684D01*
X112939508Y-60560496D01*
X112962030Y-60568554D01*
X112983654Y-60578782D01*
X113004171Y-60591079D01*
X113023384Y-60605329D01*
X113041108Y-60621393D01*
X113057172Y-60639117D01*
X113071422Y-60658330D01*
X113083719Y-60678847D01*
X113093947Y-60700471D01*
X113102005Y-60722993D01*
X113107817Y-60746197D01*
X113111327Y-60769858D01*
X113112501Y-60793750D01*
X113112501Y-61706250D01*
X113111327Y-61730142D01*
X113107817Y-61753803D01*
X113102005Y-61777007D01*
X113093947Y-61799529D01*
X113083719Y-61821153D01*
X113071422Y-61841670D01*
X113057172Y-61860883D01*
X113041108Y-61878607D01*
X113023384Y-61894671D01*
X113004171Y-61908921D01*
X112983654Y-61921218D01*
X112962030Y-61931446D01*
X112939508Y-61939504D01*
X112916304Y-61945316D01*
X112892643Y-61948826D01*
X112868751Y-61950000D01*
X112381251Y-61950000D01*
X112357359Y-61948826D01*
X112333698Y-61945316D01*
X112310494Y-61939504D01*
X112287972Y-61931446D01*
X112266348Y-61921218D01*
X112245831Y-61908921D01*
X112226618Y-61894671D01*
X112208894Y-61878607D01*
X112192830Y-61860883D01*
X112178580Y-61841670D01*
X112166283Y-61821153D01*
X112156055Y-61799529D01*
X112147997Y-61777007D01*
X112142185Y-61753803D01*
X112138675Y-61730142D01*
X112137501Y-61706250D01*
X112137501Y-60793750D01*
X112138675Y-60769858D01*
X112142185Y-60746197D01*
X112147997Y-60722993D01*
X112156055Y-60700471D01*
X112166283Y-60678847D01*
X112178580Y-60658330D01*
X112192830Y-60639117D01*
X112208894Y-60621393D01*
X112226618Y-60605329D01*
X112245831Y-60591079D01*
X112266348Y-60578782D01*
X112287972Y-60568554D01*
X112310494Y-60560496D01*
X112333698Y-60554684D01*
X112357359Y-60551174D01*
X112381251Y-60550000D01*
X112868751Y-60550000D01*
X112892643Y-60551174D01*
X112892643Y-60551174D01*
G37*
D13*
X112625001Y-61250000D03*
G04 #@! TD*
D12*
G04 #@! TO.C,D3*
G36*
X97830142Y-60551174D02*
X97853803Y-60554684D01*
X97877007Y-60560496D01*
X97899529Y-60568554D01*
X97921153Y-60578782D01*
X97941670Y-60591079D01*
X97960883Y-60605329D01*
X97978607Y-60621393D01*
X97994671Y-60639117D01*
X98008921Y-60658330D01*
X98021218Y-60678847D01*
X98031446Y-60700471D01*
X98039504Y-60722993D01*
X98045316Y-60746197D01*
X98048826Y-60769858D01*
X98050000Y-60793750D01*
X98050000Y-61706250D01*
X98048826Y-61730142D01*
X98045316Y-61753803D01*
X98039504Y-61777007D01*
X98031446Y-61799529D01*
X98021218Y-61821153D01*
X98008921Y-61841670D01*
X97994671Y-61860883D01*
X97978607Y-61878607D01*
X97960883Y-61894671D01*
X97941670Y-61908921D01*
X97921153Y-61921218D01*
X97899529Y-61931446D01*
X97877007Y-61939504D01*
X97853803Y-61945316D01*
X97830142Y-61948826D01*
X97806250Y-61950000D01*
X97318750Y-61950000D01*
X97294858Y-61948826D01*
X97271197Y-61945316D01*
X97247993Y-61939504D01*
X97225471Y-61931446D01*
X97203847Y-61921218D01*
X97183330Y-61908921D01*
X97164117Y-61894671D01*
X97146393Y-61878607D01*
X97130329Y-61860883D01*
X97116079Y-61841670D01*
X97103782Y-61821153D01*
X97093554Y-61799529D01*
X97085496Y-61777007D01*
X97079684Y-61753803D01*
X97076174Y-61730142D01*
X97075000Y-61706250D01*
X97075000Y-60793750D01*
X97076174Y-60769858D01*
X97079684Y-60746197D01*
X97085496Y-60722993D01*
X97093554Y-60700471D01*
X97103782Y-60678847D01*
X97116079Y-60658330D01*
X97130329Y-60639117D01*
X97146393Y-60621393D01*
X97164117Y-60605329D01*
X97183330Y-60591079D01*
X97203847Y-60578782D01*
X97225471Y-60568554D01*
X97247993Y-60560496D01*
X97271197Y-60554684D01*
X97294858Y-60551174D01*
X97318750Y-60550000D01*
X97806250Y-60550000D01*
X97830142Y-60551174D01*
X97830142Y-60551174D01*
G37*
D13*
X97562500Y-61250000D03*
D12*
G36*
X99705142Y-60551174D02*
X99728803Y-60554684D01*
X99752007Y-60560496D01*
X99774529Y-60568554D01*
X99796153Y-60578782D01*
X99816670Y-60591079D01*
X99835883Y-60605329D01*
X99853607Y-60621393D01*
X99869671Y-60639117D01*
X99883921Y-60658330D01*
X99896218Y-60678847D01*
X99906446Y-60700471D01*
X99914504Y-60722993D01*
X99920316Y-60746197D01*
X99923826Y-60769858D01*
X99925000Y-60793750D01*
X99925000Y-61706250D01*
X99923826Y-61730142D01*
X99920316Y-61753803D01*
X99914504Y-61777007D01*
X99906446Y-61799529D01*
X99896218Y-61821153D01*
X99883921Y-61841670D01*
X99869671Y-61860883D01*
X99853607Y-61878607D01*
X99835883Y-61894671D01*
X99816670Y-61908921D01*
X99796153Y-61921218D01*
X99774529Y-61931446D01*
X99752007Y-61939504D01*
X99728803Y-61945316D01*
X99705142Y-61948826D01*
X99681250Y-61950000D01*
X99193750Y-61950000D01*
X99169858Y-61948826D01*
X99146197Y-61945316D01*
X99122993Y-61939504D01*
X99100471Y-61931446D01*
X99078847Y-61921218D01*
X99058330Y-61908921D01*
X99039117Y-61894671D01*
X99021393Y-61878607D01*
X99005329Y-61860883D01*
X98991079Y-61841670D01*
X98978782Y-61821153D01*
X98968554Y-61799529D01*
X98960496Y-61777007D01*
X98954684Y-61753803D01*
X98951174Y-61730142D01*
X98950000Y-61706250D01*
X98950000Y-60793750D01*
X98951174Y-60769858D01*
X98954684Y-60746197D01*
X98960496Y-60722993D01*
X98968554Y-60700471D01*
X98978782Y-60678847D01*
X98991079Y-60658330D01*
X99005329Y-60639117D01*
X99021393Y-60621393D01*
X99039117Y-60605329D01*
X99058330Y-60591079D01*
X99078847Y-60578782D01*
X99100471Y-60568554D01*
X99122993Y-60560496D01*
X99146197Y-60554684D01*
X99169858Y-60551174D01*
X99193750Y-60550000D01*
X99681250Y-60550000D01*
X99705142Y-60551174D01*
X99705142Y-60551174D01*
G37*
D13*
X99437500Y-61250000D03*
G04 #@! TD*
D12*
G04 #@! TO.C,R4*
G36*
X111080142Y-62551174D02*
X111103803Y-62554684D01*
X111127007Y-62560496D01*
X111149529Y-62568554D01*
X111171153Y-62578782D01*
X111191670Y-62591079D01*
X111210883Y-62605329D01*
X111228607Y-62621393D01*
X111244671Y-62639117D01*
X111258921Y-62658330D01*
X111271218Y-62678847D01*
X111281446Y-62700471D01*
X111289504Y-62722993D01*
X111295316Y-62746197D01*
X111298826Y-62769858D01*
X111300000Y-62793750D01*
X111300000Y-63706250D01*
X111298826Y-63730142D01*
X111295316Y-63753803D01*
X111289504Y-63777007D01*
X111281446Y-63799529D01*
X111271218Y-63821153D01*
X111258921Y-63841670D01*
X111244671Y-63860883D01*
X111228607Y-63878607D01*
X111210883Y-63894671D01*
X111191670Y-63908921D01*
X111171153Y-63921218D01*
X111149529Y-63931446D01*
X111127007Y-63939504D01*
X111103803Y-63945316D01*
X111080142Y-63948826D01*
X111056250Y-63950000D01*
X110568750Y-63950000D01*
X110544858Y-63948826D01*
X110521197Y-63945316D01*
X110497993Y-63939504D01*
X110475471Y-63931446D01*
X110453847Y-63921218D01*
X110433330Y-63908921D01*
X110414117Y-63894671D01*
X110396393Y-63878607D01*
X110380329Y-63860883D01*
X110366079Y-63841670D01*
X110353782Y-63821153D01*
X110343554Y-63799529D01*
X110335496Y-63777007D01*
X110329684Y-63753803D01*
X110326174Y-63730142D01*
X110325000Y-63706250D01*
X110325000Y-62793750D01*
X110326174Y-62769858D01*
X110329684Y-62746197D01*
X110335496Y-62722993D01*
X110343554Y-62700471D01*
X110353782Y-62678847D01*
X110366079Y-62658330D01*
X110380329Y-62639117D01*
X110396393Y-62621393D01*
X110414117Y-62605329D01*
X110433330Y-62591079D01*
X110453847Y-62578782D01*
X110475471Y-62568554D01*
X110497993Y-62560496D01*
X110521197Y-62554684D01*
X110544858Y-62551174D01*
X110568750Y-62550000D01*
X111056250Y-62550000D01*
X111080142Y-62551174D01*
X111080142Y-62551174D01*
G37*
D13*
X110812500Y-63250000D03*
D12*
G36*
X112955142Y-62551174D02*
X112978803Y-62554684D01*
X113002007Y-62560496D01*
X113024529Y-62568554D01*
X113046153Y-62578782D01*
X113066670Y-62591079D01*
X113085883Y-62605329D01*
X113103607Y-62621393D01*
X113119671Y-62639117D01*
X113133921Y-62658330D01*
X113146218Y-62678847D01*
X113156446Y-62700471D01*
X113164504Y-62722993D01*
X113170316Y-62746197D01*
X113173826Y-62769858D01*
X113175000Y-62793750D01*
X113175000Y-63706250D01*
X113173826Y-63730142D01*
X113170316Y-63753803D01*
X113164504Y-63777007D01*
X113156446Y-63799529D01*
X113146218Y-63821153D01*
X113133921Y-63841670D01*
X113119671Y-63860883D01*
X113103607Y-63878607D01*
X113085883Y-63894671D01*
X113066670Y-63908921D01*
X113046153Y-63921218D01*
X113024529Y-63931446D01*
X113002007Y-63939504D01*
X112978803Y-63945316D01*
X112955142Y-63948826D01*
X112931250Y-63950000D01*
X112443750Y-63950000D01*
X112419858Y-63948826D01*
X112396197Y-63945316D01*
X112372993Y-63939504D01*
X112350471Y-63931446D01*
X112328847Y-63921218D01*
X112308330Y-63908921D01*
X112289117Y-63894671D01*
X112271393Y-63878607D01*
X112255329Y-63860883D01*
X112241079Y-63841670D01*
X112228782Y-63821153D01*
X112218554Y-63799529D01*
X112210496Y-63777007D01*
X112204684Y-63753803D01*
X112201174Y-63730142D01*
X112200000Y-63706250D01*
X112200000Y-62793750D01*
X112201174Y-62769858D01*
X112204684Y-62746197D01*
X112210496Y-62722993D01*
X112218554Y-62700471D01*
X112228782Y-62678847D01*
X112241079Y-62658330D01*
X112255329Y-62639117D01*
X112271393Y-62621393D01*
X112289117Y-62605329D01*
X112308330Y-62591079D01*
X112328847Y-62578782D01*
X112350471Y-62568554D01*
X112372993Y-62560496D01*
X112396197Y-62554684D01*
X112419858Y-62551174D01*
X112443750Y-62550000D01*
X112931250Y-62550000D01*
X112955142Y-62551174D01*
X112955142Y-62551174D01*
G37*
D13*
X112687500Y-63250000D03*
G04 #@! TD*
D12*
G04 #@! TO.C,R5*
G36*
X97830142Y-62551174D02*
X97853803Y-62554684D01*
X97877007Y-62560496D01*
X97899529Y-62568554D01*
X97921153Y-62578782D01*
X97941670Y-62591079D01*
X97960883Y-62605329D01*
X97978607Y-62621393D01*
X97994671Y-62639117D01*
X98008921Y-62658330D01*
X98021218Y-62678847D01*
X98031446Y-62700471D01*
X98039504Y-62722993D01*
X98045316Y-62746197D01*
X98048826Y-62769858D01*
X98050000Y-62793750D01*
X98050000Y-63706250D01*
X98048826Y-63730142D01*
X98045316Y-63753803D01*
X98039504Y-63777007D01*
X98031446Y-63799529D01*
X98021218Y-63821153D01*
X98008921Y-63841670D01*
X97994671Y-63860883D01*
X97978607Y-63878607D01*
X97960883Y-63894671D01*
X97941670Y-63908921D01*
X97921153Y-63921218D01*
X97899529Y-63931446D01*
X97877007Y-63939504D01*
X97853803Y-63945316D01*
X97830142Y-63948826D01*
X97806250Y-63950000D01*
X97318750Y-63950000D01*
X97294858Y-63948826D01*
X97271197Y-63945316D01*
X97247993Y-63939504D01*
X97225471Y-63931446D01*
X97203847Y-63921218D01*
X97183330Y-63908921D01*
X97164117Y-63894671D01*
X97146393Y-63878607D01*
X97130329Y-63860883D01*
X97116079Y-63841670D01*
X97103782Y-63821153D01*
X97093554Y-63799529D01*
X97085496Y-63777007D01*
X97079684Y-63753803D01*
X97076174Y-63730142D01*
X97075000Y-63706250D01*
X97075000Y-62793750D01*
X97076174Y-62769858D01*
X97079684Y-62746197D01*
X97085496Y-62722993D01*
X97093554Y-62700471D01*
X97103782Y-62678847D01*
X97116079Y-62658330D01*
X97130329Y-62639117D01*
X97146393Y-62621393D01*
X97164117Y-62605329D01*
X97183330Y-62591079D01*
X97203847Y-62578782D01*
X97225471Y-62568554D01*
X97247993Y-62560496D01*
X97271197Y-62554684D01*
X97294858Y-62551174D01*
X97318750Y-62550000D01*
X97806250Y-62550000D01*
X97830142Y-62551174D01*
X97830142Y-62551174D01*
G37*
D13*
X97562500Y-63250000D03*
D12*
G36*
X99705142Y-62551174D02*
X99728803Y-62554684D01*
X99752007Y-62560496D01*
X99774529Y-62568554D01*
X99796153Y-62578782D01*
X99816670Y-62591079D01*
X99835883Y-62605329D01*
X99853607Y-62621393D01*
X99869671Y-62639117D01*
X99883921Y-62658330D01*
X99896218Y-62678847D01*
X99906446Y-62700471D01*
X99914504Y-62722993D01*
X99920316Y-62746197D01*
X99923826Y-62769858D01*
X99925000Y-62793750D01*
X99925000Y-63706250D01*
X99923826Y-63730142D01*
X99920316Y-63753803D01*
X99914504Y-63777007D01*
X99906446Y-63799529D01*
X99896218Y-63821153D01*
X99883921Y-63841670D01*
X99869671Y-63860883D01*
X99853607Y-63878607D01*
X99835883Y-63894671D01*
X99816670Y-63908921D01*
X99796153Y-63921218D01*
X99774529Y-63931446D01*
X99752007Y-63939504D01*
X99728803Y-63945316D01*
X99705142Y-63948826D01*
X99681250Y-63950000D01*
X99193750Y-63950000D01*
X99169858Y-63948826D01*
X99146197Y-63945316D01*
X99122993Y-63939504D01*
X99100471Y-63931446D01*
X99078847Y-63921218D01*
X99058330Y-63908921D01*
X99039117Y-63894671D01*
X99021393Y-63878607D01*
X99005329Y-63860883D01*
X98991079Y-63841670D01*
X98978782Y-63821153D01*
X98968554Y-63799529D01*
X98960496Y-63777007D01*
X98954684Y-63753803D01*
X98951174Y-63730142D01*
X98950000Y-63706250D01*
X98950000Y-62793750D01*
X98951174Y-62769858D01*
X98954684Y-62746197D01*
X98960496Y-62722993D01*
X98968554Y-62700471D01*
X98978782Y-62678847D01*
X98991079Y-62658330D01*
X99005329Y-62639117D01*
X99021393Y-62621393D01*
X99039117Y-62605329D01*
X99058330Y-62591079D01*
X99078847Y-62578782D01*
X99100471Y-62568554D01*
X99122993Y-62560496D01*
X99146197Y-62554684D01*
X99169858Y-62551174D01*
X99193750Y-62550000D01*
X99681250Y-62550000D01*
X99705142Y-62551174D01*
X99705142Y-62551174D01*
G37*
D13*
X99437500Y-63250000D03*
G04 #@! TD*
D21*
G04 #@! TO.C,SW1*
X89930000Y-73750000D03*
X89930000Y-76750000D03*
X89930000Y-78250000D03*
D22*
X87070000Y-72350000D03*
X87070000Y-79650000D03*
X89280000Y-79650000D03*
X89280000Y-72350000D03*
G04 #@! TD*
M02*
