G04 #@! TF.GenerationSoftware,KiCad,Pcbnew,5.0.2-bee76a0~70~ubuntu18.04.1*
G04 #@! TF.CreationDate,2019-03-01T14:14:17+01:00*
G04 #@! TF.ProjectId,SINE_STIMULUS_charger,53494e45-5f53-4544-994d-554c55535f63,rev?*
G04 #@! TF.SameCoordinates,Original*
G04 #@! TF.FileFunction,Soldermask,Top*
G04 #@! TF.FilePolarity,Negative*
%FSLAX46Y46*%
G04 Gerber Fmt 4.6, Leading zero omitted, Abs format (unit mm)*
G04 Created by KiCad (PCBNEW 5.0.2-bee76a0~70~ubuntu18.04.1) date ven. 01 mars 2019 14:14:17 CET*
%MOMM*%
%LPD*%
G01*
G04 APERTURE LIST*
%ADD10C,0.180000*%
%ADD11C,0.080000*%
%ADD12C,0.100000*%
G04 APERTURE END LIST*
D10*
X114264619Y-61535714D02*
X114226523Y-61573809D01*
X114112238Y-61611904D01*
X114036047Y-61611904D01*
X113921761Y-61573809D01*
X113845571Y-61497619D01*
X113807476Y-61421428D01*
X113769380Y-61269047D01*
X113769380Y-61154761D01*
X113807476Y-61002380D01*
X113845571Y-60926190D01*
X113921761Y-60850000D01*
X114036047Y-60811904D01*
X114112238Y-60811904D01*
X114226523Y-60850000D01*
X114264619Y-60888095D01*
X114607476Y-61611904D02*
X114607476Y-60811904D01*
X114607476Y-61192857D02*
X115064619Y-61192857D01*
X115064619Y-61611904D02*
X115064619Y-60811904D01*
X115407476Y-61383333D02*
X115788428Y-61383333D01*
X115331285Y-61611904D02*
X115597952Y-60811904D01*
X115864619Y-61611904D01*
X116588428Y-61611904D02*
X116321761Y-61230952D01*
X116131285Y-61611904D02*
X116131285Y-60811904D01*
X116436047Y-60811904D01*
X116512238Y-60850000D01*
X116550333Y-60888095D01*
X116588428Y-60964285D01*
X116588428Y-61078571D01*
X116550333Y-61154761D01*
X116512238Y-61192857D01*
X116436047Y-61230952D01*
X116131285Y-61230952D01*
X117350333Y-60850000D02*
X117274142Y-60811904D01*
X117159857Y-60811904D01*
X117045571Y-60850000D01*
X116969380Y-60926190D01*
X116931285Y-61002380D01*
X116893190Y-61154761D01*
X116893190Y-61269047D01*
X116931285Y-61421428D01*
X116969380Y-61497619D01*
X117045571Y-61573809D01*
X117159857Y-61611904D01*
X117236047Y-61611904D01*
X117350333Y-61573809D01*
X117388428Y-61535714D01*
X117388428Y-61269047D01*
X117236047Y-61269047D01*
X117731285Y-61611904D02*
X117731285Y-60811904D01*
X118112238Y-61611904D02*
X118112238Y-60811904D01*
X118569380Y-61611904D01*
X118569380Y-60811904D01*
X119369380Y-60850000D02*
X119293190Y-60811904D01*
X119178904Y-60811904D01*
X119064619Y-60850000D01*
X118988428Y-60926190D01*
X118950333Y-61002380D01*
X118912238Y-61154761D01*
X118912238Y-61269047D01*
X118950333Y-61421428D01*
X118988428Y-61497619D01*
X119064619Y-61573809D01*
X119178904Y-61611904D01*
X119255095Y-61611904D01*
X119369380Y-61573809D01*
X119407476Y-61535714D01*
X119407476Y-61269047D01*
X119255095Y-61269047D01*
D11*
X113900000Y-62000000D02*
X119300000Y-62000000D01*
D10*
X90873476Y-61611904D02*
X90873476Y-60811904D01*
X91178238Y-60811904D01*
X91254428Y-60850000D01*
X91292523Y-60888095D01*
X91330619Y-60964285D01*
X91330619Y-61078571D01*
X91292523Y-61154761D01*
X91254428Y-61192857D01*
X91178238Y-61230952D01*
X90873476Y-61230952D01*
X91825857Y-60811904D02*
X91978238Y-60811904D01*
X92054428Y-60850000D01*
X92130619Y-60926190D01*
X92168714Y-61078571D01*
X92168714Y-61345238D01*
X92130619Y-61497619D01*
X92054428Y-61573809D01*
X91978238Y-61611904D01*
X91825857Y-61611904D01*
X91749666Y-61573809D01*
X91673476Y-61497619D01*
X91635380Y-61345238D01*
X91635380Y-61078571D01*
X91673476Y-60926190D01*
X91749666Y-60850000D01*
X91825857Y-60811904D01*
X92435380Y-60811904D02*
X92625857Y-61611904D01*
X92778238Y-61040476D01*
X92930619Y-61611904D01*
X93121095Y-60811904D01*
X93425857Y-61192857D02*
X93692523Y-61192857D01*
X93806809Y-61611904D02*
X93425857Y-61611904D01*
X93425857Y-60811904D01*
X93806809Y-60811904D01*
X94606809Y-61611904D02*
X94340142Y-61230952D01*
X94149666Y-61611904D02*
X94149666Y-60811904D01*
X94454428Y-60811904D01*
X94530619Y-60850000D01*
X94568714Y-60888095D01*
X94606809Y-60964285D01*
X94606809Y-61078571D01*
X94568714Y-61154761D01*
X94530619Y-61192857D01*
X94454428Y-61230952D01*
X94149666Y-61230952D01*
X94949666Y-61192857D02*
X95216333Y-61192857D01*
X95330619Y-61611904D02*
X94949666Y-61611904D01*
X94949666Y-60811904D01*
X95330619Y-60811904D01*
X95673476Y-61611904D02*
X95673476Y-60811904D01*
X95863952Y-60811904D01*
X95978238Y-60850000D01*
X96054428Y-60926190D01*
X96092523Y-61002380D01*
X96130619Y-61154761D01*
X96130619Y-61269047D01*
X96092523Y-61421428D01*
X96054428Y-61497619D01*
X95978238Y-61573809D01*
X95863952Y-61611904D01*
X95673476Y-61611904D01*
D11*
X95900000Y-62000000D02*
X91050000Y-62000000D01*
D12*
G36*
X109051000Y-88051000D02*
X100949000Y-88051000D01*
X100949000Y-79949000D01*
X109051000Y-79949000D01*
X109051000Y-88051000D01*
X109051000Y-88051000D01*
G37*
G36*
X123351000Y-86801000D02*
X117249000Y-86801000D01*
X117249000Y-81199000D01*
X123351000Y-81199000D01*
X123351000Y-86801000D01*
X123351000Y-86801000D01*
G37*
G36*
X92751000Y-86801000D02*
X86649000Y-86801000D01*
X86649000Y-81199000D01*
X92751000Y-81199000D01*
X92751000Y-86801000D01*
X92751000Y-86801000D01*
G37*
G36*
X89731000Y-80201000D02*
X88829000Y-80201000D01*
X88829000Y-79099000D01*
X89731000Y-79099000D01*
X89731000Y-80201000D01*
X89731000Y-80201000D01*
G37*
G36*
X87521000Y-80201000D02*
X86619000Y-80201000D01*
X86619000Y-79099000D01*
X87521000Y-79099000D01*
X87521000Y-80201000D01*
X87521000Y-80201000D01*
G37*
G36*
X122030443Y-77845519D02*
X122096627Y-77852037D01*
X122209853Y-77886384D01*
X122266467Y-77903557D01*
X122405087Y-77977652D01*
X122422991Y-77987222D01*
X122439779Y-78001000D01*
X122560186Y-78099814D01*
X122643448Y-78201271D01*
X122672778Y-78237009D01*
X122672779Y-78237011D01*
X122756443Y-78393533D01*
X122756443Y-78393534D01*
X122807963Y-78563373D01*
X122825359Y-78740000D01*
X122807963Y-78916627D01*
X122773616Y-79029853D01*
X122756443Y-79086467D01*
X122682348Y-79225087D01*
X122672778Y-79242991D01*
X122643448Y-79278729D01*
X122560186Y-79380186D01*
X122458729Y-79463448D01*
X122422991Y-79492778D01*
X122422989Y-79492779D01*
X122266467Y-79576443D01*
X122209853Y-79593616D01*
X122096627Y-79627963D01*
X122030442Y-79634482D01*
X121964260Y-79641000D01*
X121875740Y-79641000D01*
X121809558Y-79634482D01*
X121743373Y-79627963D01*
X121630147Y-79593616D01*
X121573533Y-79576443D01*
X121417011Y-79492779D01*
X121417009Y-79492778D01*
X121381271Y-79463448D01*
X121279814Y-79380186D01*
X121196552Y-79278729D01*
X121167222Y-79242991D01*
X121157652Y-79225087D01*
X121083557Y-79086467D01*
X121066384Y-79029853D01*
X121032037Y-78916627D01*
X121014641Y-78740000D01*
X121032037Y-78563373D01*
X121083557Y-78393534D01*
X121083557Y-78393533D01*
X121167221Y-78237011D01*
X121167222Y-78237009D01*
X121196552Y-78201271D01*
X121279814Y-78099814D01*
X121400221Y-78001000D01*
X121417009Y-77987222D01*
X121434913Y-77977652D01*
X121573533Y-77903557D01*
X121630147Y-77886384D01*
X121743373Y-77852037D01*
X121809557Y-77845519D01*
X121875740Y-77839000D01*
X121964260Y-77839000D01*
X122030443Y-77845519D01*
X122030443Y-77845519D01*
G37*
G36*
X90731000Y-78651000D02*
X89129000Y-78651000D01*
X89129000Y-77849000D01*
X90731000Y-77849000D01*
X90731000Y-78651000D01*
X90731000Y-78651000D01*
G37*
G36*
X88316136Y-77018253D02*
X88407312Y-77056019D01*
X88489372Y-77110850D01*
X88559150Y-77180628D01*
X88613981Y-77262688D01*
X88651747Y-77353864D01*
X88671000Y-77450656D01*
X88671000Y-77549344D01*
X88651747Y-77646136D01*
X88613981Y-77737312D01*
X88559150Y-77819372D01*
X88489372Y-77889150D01*
X88407312Y-77943981D01*
X88316136Y-77981747D01*
X88219344Y-78001000D01*
X88120656Y-78001000D01*
X88023864Y-77981747D01*
X87932688Y-77943981D01*
X87850628Y-77889150D01*
X87780850Y-77819372D01*
X87726019Y-77737312D01*
X87688253Y-77646136D01*
X87669000Y-77549344D01*
X87669000Y-77450656D01*
X87688253Y-77353864D01*
X87726019Y-77262688D01*
X87780850Y-77180628D01*
X87850628Y-77110850D01*
X87932688Y-77056019D01*
X88023864Y-77018253D01*
X88120656Y-76999000D01*
X88219344Y-76999000D01*
X88316136Y-77018253D01*
X88316136Y-77018253D01*
G37*
G36*
X90731000Y-77151000D02*
X89129000Y-77151000D01*
X89129000Y-76349000D01*
X90731000Y-76349000D01*
X90731000Y-77151000D01*
X90731000Y-77151000D01*
G37*
G36*
X122821000Y-77101000D02*
X121019000Y-77101000D01*
X121019000Y-75299000D01*
X122821000Y-75299000D01*
X122821000Y-77101000D01*
X122821000Y-77101000D01*
G37*
G36*
X93056569Y-73234911D02*
X93056575Y-73234916D01*
X93765085Y-73943426D01*
X93765090Y-73943432D01*
X94348453Y-74526795D01*
X93526794Y-75348454D01*
X92906667Y-74728327D01*
X92906662Y-74728321D01*
X92271680Y-74093339D01*
X92271674Y-74093334D01*
X91651546Y-73473206D01*
X92473205Y-72651547D01*
X93056569Y-73234911D01*
X93056569Y-73234911D01*
G37*
G36*
X88316136Y-74018253D02*
X88407312Y-74056019D01*
X88489372Y-74110850D01*
X88559150Y-74180628D01*
X88613981Y-74262688D01*
X88651747Y-74353864D01*
X88671000Y-74450656D01*
X88671000Y-74549344D01*
X88651747Y-74646136D01*
X88613981Y-74737312D01*
X88559150Y-74819372D01*
X88489372Y-74889150D01*
X88407312Y-74943981D01*
X88316136Y-74981747D01*
X88219344Y-75001000D01*
X88120656Y-75001000D01*
X88023864Y-74981747D01*
X87932688Y-74943981D01*
X87850628Y-74889150D01*
X87780850Y-74819372D01*
X87726019Y-74737312D01*
X87688253Y-74646136D01*
X87669000Y-74549344D01*
X87669000Y-74450656D01*
X87688253Y-74353864D01*
X87726019Y-74262688D01*
X87780850Y-74180628D01*
X87850628Y-74110850D01*
X87932688Y-74056019D01*
X88023864Y-74018253D01*
X88120656Y-73999000D01*
X88219344Y-73999000D01*
X88316136Y-74018253D01*
X88316136Y-74018253D01*
G37*
G36*
X90731000Y-74151000D02*
X89129000Y-74151000D01*
X89129000Y-73349000D01*
X90731000Y-73349000D01*
X90731000Y-74151000D01*
X90731000Y-74151000D01*
G37*
G36*
X95904088Y-72971160D02*
X95082429Y-73792819D01*
X94550684Y-73261074D01*
X95372343Y-72439415D01*
X95904088Y-72971160D01*
X95904088Y-72971160D01*
G37*
G36*
X89731000Y-72901000D02*
X88829000Y-72901000D01*
X88829000Y-71799000D01*
X89731000Y-71799000D01*
X89731000Y-72901000D01*
X89731000Y-72901000D01*
G37*
G36*
X87521000Y-72901000D02*
X86619000Y-72901000D01*
X86619000Y-71799000D01*
X87521000Y-71799000D01*
X87521000Y-72901000D01*
X87521000Y-72901000D01*
G37*
G36*
X94560585Y-71627657D02*
X93738926Y-72449316D01*
X93207181Y-71917571D01*
X94028840Y-71095912D01*
X94560585Y-71627657D01*
X94560585Y-71627657D01*
G37*
G36*
X116434466Y-70753565D02*
X116473137Y-70765296D01*
X116508779Y-70784348D01*
X116540017Y-70809983D01*
X116565652Y-70841221D01*
X116584704Y-70876863D01*
X116596435Y-70915534D01*
X116601000Y-70961888D01*
X116601000Y-72038112D01*
X116596435Y-72084466D01*
X116584704Y-72123137D01*
X116565652Y-72158779D01*
X116540017Y-72190017D01*
X116508779Y-72215652D01*
X116473137Y-72234704D01*
X116434466Y-72246435D01*
X116388112Y-72251000D01*
X115736888Y-72251000D01*
X115690534Y-72246435D01*
X115651863Y-72234704D01*
X115616221Y-72215652D01*
X115584983Y-72190017D01*
X115559348Y-72158779D01*
X115540296Y-72123137D01*
X115528565Y-72084466D01*
X115524000Y-72038112D01*
X115524000Y-70961888D01*
X115528565Y-70915534D01*
X115540296Y-70876863D01*
X115559348Y-70841221D01*
X115584983Y-70809983D01*
X115616221Y-70784348D01*
X115651863Y-70765296D01*
X115690534Y-70753565D01*
X115736888Y-70749000D01*
X116388112Y-70749000D01*
X116434466Y-70753565D01*
X116434466Y-70753565D01*
G37*
G36*
X118309466Y-70753565D02*
X118348137Y-70765296D01*
X118383779Y-70784348D01*
X118415017Y-70809983D01*
X118440652Y-70841221D01*
X118459704Y-70876863D01*
X118471435Y-70915534D01*
X118476000Y-70961888D01*
X118476000Y-72038112D01*
X118471435Y-72084466D01*
X118459704Y-72123137D01*
X118440652Y-72158779D01*
X118415017Y-72190017D01*
X118383779Y-72215652D01*
X118348137Y-72234704D01*
X118309466Y-72246435D01*
X118263112Y-72251000D01*
X117611888Y-72251000D01*
X117565534Y-72246435D01*
X117526863Y-72234704D01*
X117491221Y-72215652D01*
X117459983Y-72190017D01*
X117434348Y-72158779D01*
X117415296Y-72123137D01*
X117403565Y-72084466D01*
X117399000Y-72038112D01*
X117399000Y-70961888D01*
X117403565Y-70915534D01*
X117415296Y-70876863D01*
X117434348Y-70841221D01*
X117459983Y-70809983D01*
X117491221Y-70784348D01*
X117526863Y-70765296D01*
X117565534Y-70753565D01*
X117611888Y-70749000D01*
X118263112Y-70749000D01*
X118309466Y-70753565D01*
X118309466Y-70753565D01*
G37*
G36*
X122501000Y-71651000D02*
X121499000Y-71651000D01*
X121499000Y-70749000D01*
X122501000Y-70749000D01*
X122501000Y-71651000D01*
X122501000Y-71651000D01*
G37*
G36*
X95639956Y-69928389D02*
X95678627Y-69940120D01*
X95714269Y-69959172D01*
X95750280Y-69988724D01*
X96511276Y-70749720D01*
X96540828Y-70785731D01*
X96559880Y-70821373D01*
X96571611Y-70860044D01*
X96575571Y-70900260D01*
X96571611Y-70940476D01*
X96559880Y-70979147D01*
X96540828Y-71014789D01*
X96511276Y-71050800D01*
X96050800Y-71511276D01*
X96014789Y-71540828D01*
X95979147Y-71559880D01*
X95940476Y-71571611D01*
X95900260Y-71575571D01*
X95860044Y-71571611D01*
X95821373Y-71559880D01*
X95785731Y-71540828D01*
X95749720Y-71511276D01*
X94988724Y-70750280D01*
X94959172Y-70714269D01*
X94940120Y-70678627D01*
X94928389Y-70639956D01*
X94924429Y-70599740D01*
X94928389Y-70559524D01*
X94940120Y-70520853D01*
X94959172Y-70485211D01*
X94988724Y-70449200D01*
X95449200Y-69988724D01*
X95485211Y-69959172D01*
X95520853Y-69940120D01*
X95559524Y-69928389D01*
X95599740Y-69924429D01*
X95639956Y-69928389D01*
X95639956Y-69928389D01*
G37*
G36*
X91084466Y-69841066D02*
X91123137Y-69852797D01*
X91158779Y-69871849D01*
X91190017Y-69897484D01*
X91215652Y-69928722D01*
X91234704Y-69964364D01*
X91246435Y-70003035D01*
X91251000Y-70049389D01*
X91251000Y-70700613D01*
X91246435Y-70746967D01*
X91234704Y-70785638D01*
X91215652Y-70821280D01*
X91190017Y-70852518D01*
X91158779Y-70878153D01*
X91123137Y-70897205D01*
X91084466Y-70908936D01*
X91038112Y-70913501D01*
X89961888Y-70913501D01*
X89915534Y-70908936D01*
X89876863Y-70897205D01*
X89841221Y-70878153D01*
X89809983Y-70852518D01*
X89784348Y-70821280D01*
X89765296Y-70785638D01*
X89753565Y-70746967D01*
X89749000Y-70700613D01*
X89749000Y-70049389D01*
X89753565Y-70003035D01*
X89765296Y-69964364D01*
X89784348Y-69928722D01*
X89809983Y-69897484D01*
X89841221Y-69871849D01*
X89876863Y-69852797D01*
X89915534Y-69841066D01*
X89961888Y-69836501D01*
X91038112Y-69836501D01*
X91084466Y-69841066D01*
X91084466Y-69841066D01*
G37*
G36*
X88012198Y-68299954D02*
X88024450Y-68300556D01*
X88042869Y-68300556D01*
X88065149Y-68302750D01*
X88149236Y-68319476D01*
X88170655Y-68325974D01*
X88249871Y-68358785D01*
X88269607Y-68369335D01*
X88340897Y-68416969D01*
X88358208Y-68431176D01*
X88418824Y-68491792D01*
X88433031Y-68509103D01*
X88480665Y-68580393D01*
X88491215Y-68600129D01*
X88524026Y-68679345D01*
X88530524Y-68700764D01*
X88547250Y-68784851D01*
X88549444Y-68807131D01*
X88549444Y-68825550D01*
X88550046Y-68837802D01*
X88551852Y-68856140D01*
X88551852Y-69343860D01*
X88550263Y-69359999D01*
X88547347Y-69369611D01*
X88542612Y-69378469D01*
X88536237Y-69386237D01*
X88523798Y-69396446D01*
X88513432Y-69403372D01*
X88496105Y-69420698D01*
X88482490Y-69441073D01*
X88473112Y-69463711D01*
X88468331Y-69487745D01*
X88468331Y-69512249D01*
X88473111Y-69536283D01*
X88482487Y-69558922D01*
X88496101Y-69579297D01*
X88513427Y-69596624D01*
X88523796Y-69603552D01*
X88536237Y-69613763D01*
X88542612Y-69621531D01*
X88547347Y-69630389D01*
X88550263Y-69640001D01*
X88551852Y-69656140D01*
X88551852Y-70143861D01*
X88550046Y-70162198D01*
X88549444Y-70174450D01*
X88549444Y-70192869D01*
X88547250Y-70215149D01*
X88530524Y-70299236D01*
X88524026Y-70320655D01*
X88491215Y-70399871D01*
X88480665Y-70419607D01*
X88433031Y-70490897D01*
X88418824Y-70508208D01*
X88358208Y-70568824D01*
X88340897Y-70583031D01*
X88269607Y-70630665D01*
X88249871Y-70641215D01*
X88170655Y-70674026D01*
X88149236Y-70680524D01*
X88065149Y-70697250D01*
X88042869Y-70699444D01*
X88024450Y-70699444D01*
X88012198Y-70700046D01*
X87993861Y-70701852D01*
X87506139Y-70701852D01*
X87487802Y-70700046D01*
X87475550Y-70699444D01*
X87457131Y-70699444D01*
X87434851Y-70697250D01*
X87350764Y-70680524D01*
X87329345Y-70674026D01*
X87250129Y-70641215D01*
X87230393Y-70630665D01*
X87159103Y-70583031D01*
X87141792Y-70568824D01*
X87081176Y-70508208D01*
X87066969Y-70490897D01*
X87019335Y-70419607D01*
X87008785Y-70399871D01*
X86975974Y-70320655D01*
X86969476Y-70299236D01*
X86952750Y-70215149D01*
X86950556Y-70192869D01*
X86950556Y-70174450D01*
X86949954Y-70162198D01*
X86948148Y-70143861D01*
X86948148Y-69656140D01*
X86949737Y-69640001D01*
X86952653Y-69630389D01*
X86957388Y-69621531D01*
X86963763Y-69613763D01*
X86976202Y-69603554D01*
X86986568Y-69596628D01*
X87003895Y-69579302D01*
X87017510Y-69558927D01*
X87026888Y-69536289D01*
X87031669Y-69512255D01*
X87031669Y-69487751D01*
X87026889Y-69463717D01*
X87017513Y-69441078D01*
X87003899Y-69420703D01*
X86986573Y-69403376D01*
X86976204Y-69396448D01*
X86963763Y-69386237D01*
X86957388Y-69378469D01*
X86952653Y-69369611D01*
X86949737Y-69359999D01*
X86948148Y-69343860D01*
X86948148Y-68856140D01*
X86949954Y-68837802D01*
X86950556Y-68825550D01*
X86950556Y-68807131D01*
X86952750Y-68784851D01*
X86969476Y-68700764D01*
X86975974Y-68679345D01*
X87008785Y-68600129D01*
X87019335Y-68580393D01*
X87066969Y-68509103D01*
X87081176Y-68491792D01*
X87141792Y-68431176D01*
X87159103Y-68416969D01*
X87230393Y-68369335D01*
X87250129Y-68358785D01*
X87329345Y-68325974D01*
X87350764Y-68319476D01*
X87434851Y-68302750D01*
X87457131Y-68300556D01*
X87475550Y-68300556D01*
X87487802Y-68299954D01*
X87506140Y-68298148D01*
X87993860Y-68298148D01*
X88012198Y-68299954D01*
X88012198Y-68299954D01*
G37*
G36*
X120501000Y-70701000D02*
X119499000Y-70701000D01*
X119499000Y-69799000D01*
X120501000Y-69799000D01*
X120501000Y-70701000D01*
X120501000Y-70701000D01*
G37*
G36*
X118309466Y-68753565D02*
X118348137Y-68765296D01*
X118383779Y-68784348D01*
X118415017Y-68809983D01*
X118440652Y-68841221D01*
X118459704Y-68876863D01*
X118471435Y-68915534D01*
X118476000Y-68961888D01*
X118476000Y-70038112D01*
X118471435Y-70084466D01*
X118459704Y-70123137D01*
X118440652Y-70158779D01*
X118415017Y-70190017D01*
X118383779Y-70215652D01*
X118348137Y-70234704D01*
X118309466Y-70246435D01*
X118263112Y-70251000D01*
X117611888Y-70251000D01*
X117565534Y-70246435D01*
X117526863Y-70234704D01*
X117491221Y-70215652D01*
X117459983Y-70190017D01*
X117434348Y-70158779D01*
X117415296Y-70123137D01*
X117403565Y-70084466D01*
X117399000Y-70038112D01*
X117399000Y-68961888D01*
X117403565Y-68915534D01*
X117415296Y-68876863D01*
X117434348Y-68841221D01*
X117459983Y-68809983D01*
X117491221Y-68784348D01*
X117526863Y-68765296D01*
X117565534Y-68753565D01*
X117611888Y-68749000D01*
X118263112Y-68749000D01*
X118309466Y-68753565D01*
X118309466Y-68753565D01*
G37*
G36*
X116434466Y-68753565D02*
X116473137Y-68765296D01*
X116508779Y-68784348D01*
X116540017Y-68809983D01*
X116565652Y-68841221D01*
X116584704Y-68876863D01*
X116596435Y-68915534D01*
X116601000Y-68961888D01*
X116601000Y-70038112D01*
X116596435Y-70084466D01*
X116584704Y-70123137D01*
X116565652Y-70158779D01*
X116540017Y-70190017D01*
X116508779Y-70215652D01*
X116473137Y-70234704D01*
X116434466Y-70246435D01*
X116388112Y-70251000D01*
X115736888Y-70251000D01*
X115690534Y-70246435D01*
X115651863Y-70234704D01*
X115616221Y-70215652D01*
X115584983Y-70190017D01*
X115559348Y-70158779D01*
X115540296Y-70123137D01*
X115528565Y-70084466D01*
X115524000Y-70038112D01*
X115524000Y-68961888D01*
X115528565Y-68915534D01*
X115540296Y-68876863D01*
X115559348Y-68841221D01*
X115584983Y-68809983D01*
X115616221Y-68784348D01*
X115651863Y-68765296D01*
X115690534Y-68753565D01*
X115736888Y-68749000D01*
X116388112Y-68749000D01*
X116434466Y-68753565D01*
X116434466Y-68753565D01*
G37*
G36*
X96965782Y-68602563D02*
X97004453Y-68614294D01*
X97040095Y-68633346D01*
X97076106Y-68662898D01*
X97837102Y-69423894D01*
X97866654Y-69459905D01*
X97885706Y-69495547D01*
X97897437Y-69534218D01*
X97901397Y-69574434D01*
X97897437Y-69614650D01*
X97885706Y-69653321D01*
X97866654Y-69688963D01*
X97837102Y-69724974D01*
X97376626Y-70185450D01*
X97340615Y-70215002D01*
X97304973Y-70234054D01*
X97266302Y-70245785D01*
X97226086Y-70249745D01*
X97185870Y-70245785D01*
X97147199Y-70234054D01*
X97111557Y-70215002D01*
X97075546Y-70185450D01*
X96314550Y-69424454D01*
X96284998Y-69388443D01*
X96265946Y-69352801D01*
X96254215Y-69314130D01*
X96250255Y-69273914D01*
X96254215Y-69233698D01*
X96265946Y-69195027D01*
X96284998Y-69159385D01*
X96314550Y-69123374D01*
X96775026Y-68662898D01*
X96811037Y-68633346D01*
X96846679Y-68614294D01*
X96885350Y-68602563D01*
X96925566Y-68598603D01*
X96965782Y-68602563D01*
X96965782Y-68602563D01*
G37*
G36*
X122501000Y-69751000D02*
X121499000Y-69751000D01*
X121499000Y-68849000D01*
X122501000Y-68849000D01*
X122501000Y-69751000D01*
X122501000Y-69751000D01*
G37*
G36*
X91084466Y-67966066D02*
X91123137Y-67977797D01*
X91158779Y-67996849D01*
X91190017Y-68022484D01*
X91215652Y-68053722D01*
X91234704Y-68089364D01*
X91246435Y-68128035D01*
X91251000Y-68174389D01*
X91251000Y-68825613D01*
X91246435Y-68871967D01*
X91234704Y-68910638D01*
X91215652Y-68946280D01*
X91190017Y-68977518D01*
X91158779Y-69003153D01*
X91123137Y-69022205D01*
X91084466Y-69033936D01*
X91038112Y-69038501D01*
X89961888Y-69038501D01*
X89915534Y-69033936D01*
X89876863Y-69022205D01*
X89841221Y-69003153D01*
X89809983Y-68977518D01*
X89784348Y-68946280D01*
X89765296Y-68910638D01*
X89753565Y-68871967D01*
X89749000Y-68825613D01*
X89749000Y-68174389D01*
X89753565Y-68128035D01*
X89765296Y-68089364D01*
X89784348Y-68053722D01*
X89809983Y-68022484D01*
X89841221Y-67996849D01*
X89876863Y-67977797D01*
X89915534Y-67966066D01*
X89961888Y-67961501D01*
X91038112Y-67961501D01*
X91084466Y-67966066D01*
X91084466Y-67966066D01*
G37*
G36*
X101570441Y-67105518D02*
X101636626Y-67112037D01*
X101749852Y-67146384D01*
X101806466Y-67163557D01*
X101945086Y-67237652D01*
X101962990Y-67247222D01*
X101998728Y-67276552D01*
X102100185Y-67359814D01*
X102183447Y-67461271D01*
X102212777Y-67497009D01*
X102212778Y-67497011D01*
X102296442Y-67653533D01*
X102296442Y-67653534D01*
X102347962Y-67823373D01*
X102365358Y-68000000D01*
X102347962Y-68176627D01*
X102326971Y-68245826D01*
X102296442Y-68346467D01*
X102251163Y-68431176D01*
X102212777Y-68502991D01*
X102183447Y-68538729D01*
X102100185Y-68640186D01*
X101998728Y-68723448D01*
X101962990Y-68752778D01*
X101962988Y-68752779D01*
X101806466Y-68836443D01*
X101749852Y-68853616D01*
X101636626Y-68887963D01*
X101570442Y-68894481D01*
X101504259Y-68901000D01*
X101415739Y-68901000D01*
X101349556Y-68894481D01*
X101283372Y-68887963D01*
X101170146Y-68853616D01*
X101113532Y-68836443D01*
X100957010Y-68752779D01*
X100957008Y-68752778D01*
X100921270Y-68723448D01*
X100819813Y-68640186D01*
X100736551Y-68538729D01*
X100707221Y-68502991D01*
X100668835Y-68431176D01*
X100623556Y-68346467D01*
X100593027Y-68245826D01*
X100572036Y-68176627D01*
X100554640Y-68000000D01*
X100572036Y-67823373D01*
X100623556Y-67653534D01*
X100623556Y-67653533D01*
X100707220Y-67497011D01*
X100707221Y-67497009D01*
X100736551Y-67461271D01*
X100819813Y-67359814D01*
X100921270Y-67276552D01*
X100957008Y-67247222D01*
X100974912Y-67237652D01*
X101113532Y-67163557D01*
X101170146Y-67146384D01*
X101283372Y-67112037D01*
X101349557Y-67105518D01*
X101415739Y-67099000D01*
X101504259Y-67099000D01*
X101570441Y-67105518D01*
X101570441Y-67105518D01*
G37*
G36*
X104110441Y-67105518D02*
X104176626Y-67112037D01*
X104289852Y-67146384D01*
X104346466Y-67163557D01*
X104485086Y-67237652D01*
X104502990Y-67247222D01*
X104538728Y-67276552D01*
X104640185Y-67359814D01*
X104723447Y-67461271D01*
X104752777Y-67497009D01*
X104752778Y-67497011D01*
X104836442Y-67653533D01*
X104836442Y-67653534D01*
X104887962Y-67823373D01*
X104905358Y-68000000D01*
X104887962Y-68176627D01*
X104866971Y-68245826D01*
X104836442Y-68346467D01*
X104791163Y-68431176D01*
X104752777Y-68502991D01*
X104723447Y-68538729D01*
X104640185Y-68640186D01*
X104538728Y-68723448D01*
X104502990Y-68752778D01*
X104502988Y-68752779D01*
X104346466Y-68836443D01*
X104289852Y-68853616D01*
X104176626Y-68887963D01*
X104110442Y-68894481D01*
X104044259Y-68901000D01*
X103955739Y-68901000D01*
X103889556Y-68894481D01*
X103823372Y-68887963D01*
X103710146Y-68853616D01*
X103653532Y-68836443D01*
X103497010Y-68752779D01*
X103497008Y-68752778D01*
X103461270Y-68723448D01*
X103359813Y-68640186D01*
X103276551Y-68538729D01*
X103247221Y-68502991D01*
X103208835Y-68431176D01*
X103163556Y-68346467D01*
X103133027Y-68245826D01*
X103112036Y-68176627D01*
X103094640Y-68000000D01*
X103112036Y-67823373D01*
X103163556Y-67653534D01*
X103163556Y-67653533D01*
X103247220Y-67497011D01*
X103247221Y-67497009D01*
X103276551Y-67461271D01*
X103359813Y-67359814D01*
X103461270Y-67276552D01*
X103497008Y-67247222D01*
X103514912Y-67237652D01*
X103653532Y-67163557D01*
X103710146Y-67146384D01*
X103823372Y-67112037D01*
X103889557Y-67105518D01*
X103955739Y-67099000D01*
X104044259Y-67099000D01*
X104110441Y-67105518D01*
X104110441Y-67105518D01*
G37*
G36*
X109980999Y-68901000D02*
X108178999Y-68901000D01*
X108178999Y-67099000D01*
X109980999Y-67099000D01*
X109980999Y-68901000D01*
X109980999Y-68901000D01*
G37*
G36*
X106650441Y-67105518D02*
X106716626Y-67112037D01*
X106829852Y-67146384D01*
X106886466Y-67163557D01*
X107025086Y-67237652D01*
X107042990Y-67247222D01*
X107078728Y-67276552D01*
X107180185Y-67359814D01*
X107263447Y-67461271D01*
X107292777Y-67497009D01*
X107292778Y-67497011D01*
X107376442Y-67653533D01*
X107376442Y-67653534D01*
X107427962Y-67823373D01*
X107445358Y-68000000D01*
X107427962Y-68176627D01*
X107406971Y-68245826D01*
X107376442Y-68346467D01*
X107331163Y-68431176D01*
X107292777Y-68502991D01*
X107263447Y-68538729D01*
X107180185Y-68640186D01*
X107078728Y-68723448D01*
X107042990Y-68752778D01*
X107042988Y-68752779D01*
X106886466Y-68836443D01*
X106829852Y-68853616D01*
X106716626Y-68887963D01*
X106650442Y-68894481D01*
X106584259Y-68901000D01*
X106495739Y-68901000D01*
X106429556Y-68894481D01*
X106363372Y-68887963D01*
X106250146Y-68853616D01*
X106193532Y-68836443D01*
X106037010Y-68752779D01*
X106037008Y-68752778D01*
X106001270Y-68723448D01*
X105899813Y-68640186D01*
X105816551Y-68538729D01*
X105787221Y-68502991D01*
X105748835Y-68431176D01*
X105703556Y-68346467D01*
X105673027Y-68245826D01*
X105652036Y-68176627D01*
X105634640Y-68000000D01*
X105652036Y-67823373D01*
X105703556Y-67653534D01*
X105703556Y-67653533D01*
X105787220Y-67497011D01*
X105787221Y-67497009D01*
X105816551Y-67461271D01*
X105899813Y-67359814D01*
X106001270Y-67276552D01*
X106037008Y-67247222D01*
X106054912Y-67237652D01*
X106193532Y-67163557D01*
X106250146Y-67146384D01*
X106363372Y-67112037D01*
X106429557Y-67105518D01*
X106495739Y-67099000D01*
X106584259Y-67099000D01*
X106650441Y-67105518D01*
X106650441Y-67105518D01*
G37*
G36*
X118309466Y-66753565D02*
X118348137Y-66765296D01*
X118383779Y-66784348D01*
X118415017Y-66809983D01*
X118440652Y-66841221D01*
X118459704Y-66876863D01*
X118471435Y-66915534D01*
X118476000Y-66961888D01*
X118476000Y-68038112D01*
X118471435Y-68084466D01*
X118459704Y-68123137D01*
X118440652Y-68158779D01*
X118415017Y-68190017D01*
X118383779Y-68215652D01*
X118348137Y-68234704D01*
X118309466Y-68246435D01*
X118263112Y-68251000D01*
X117611888Y-68251000D01*
X117565534Y-68246435D01*
X117526863Y-68234704D01*
X117491221Y-68215652D01*
X117459983Y-68190017D01*
X117434348Y-68158779D01*
X117415296Y-68123137D01*
X117403565Y-68084466D01*
X117399000Y-68038112D01*
X117399000Y-66961888D01*
X117403565Y-66915534D01*
X117415296Y-66876863D01*
X117434348Y-66841221D01*
X117459983Y-66809983D01*
X117491221Y-66784348D01*
X117526863Y-66765296D01*
X117565534Y-66753565D01*
X117611888Y-66749000D01*
X118263112Y-66749000D01*
X118309466Y-66753565D01*
X118309466Y-66753565D01*
G37*
G36*
X116434466Y-66753565D02*
X116473137Y-66765296D01*
X116508779Y-66784348D01*
X116540017Y-66809983D01*
X116565652Y-66841221D01*
X116584704Y-66876863D01*
X116596435Y-66915534D01*
X116601000Y-66961888D01*
X116601000Y-68038112D01*
X116596435Y-68084466D01*
X116584704Y-68123137D01*
X116565652Y-68158779D01*
X116540017Y-68190017D01*
X116508779Y-68215652D01*
X116473137Y-68234704D01*
X116434466Y-68246435D01*
X116388112Y-68251000D01*
X115736888Y-68251000D01*
X115690534Y-68246435D01*
X115651863Y-68234704D01*
X115616221Y-68215652D01*
X115584983Y-68190017D01*
X115559348Y-68158779D01*
X115540296Y-68123137D01*
X115528565Y-68084466D01*
X115524000Y-68038112D01*
X115524000Y-66961888D01*
X115528565Y-66915534D01*
X115540296Y-66876863D01*
X115559348Y-66841221D01*
X115584983Y-66809983D01*
X115616221Y-66784348D01*
X115651863Y-66765296D01*
X115690534Y-66753565D01*
X115736888Y-66749000D01*
X116388112Y-66749000D01*
X116434466Y-66753565D01*
X116434466Y-66753565D01*
G37*
G36*
X92951050Y-67850400D02*
X92048950Y-67850400D01*
X92048950Y-66849240D01*
X92951050Y-66849240D01*
X92951050Y-67850400D01*
X92951050Y-67850400D01*
G37*
G36*
X111184466Y-64503565D02*
X111223137Y-64515296D01*
X111258779Y-64534348D01*
X111290017Y-64559983D01*
X111315652Y-64591221D01*
X111334704Y-64626863D01*
X111346435Y-64665534D01*
X111351000Y-64711888D01*
X111351000Y-65788112D01*
X111346435Y-65834466D01*
X111334704Y-65873137D01*
X111315652Y-65908779D01*
X111290017Y-65940017D01*
X111258779Y-65965652D01*
X111223137Y-65984704D01*
X111184466Y-65996435D01*
X111138112Y-66001000D01*
X110486888Y-66001000D01*
X110440534Y-65996435D01*
X110401863Y-65984704D01*
X110366221Y-65965652D01*
X110334983Y-65940017D01*
X110309348Y-65908779D01*
X110290296Y-65873137D01*
X110278565Y-65834466D01*
X110274000Y-65788112D01*
X110274000Y-64711888D01*
X110278565Y-64665534D01*
X110290296Y-64626863D01*
X110309348Y-64591221D01*
X110334983Y-64559983D01*
X110366221Y-64534348D01*
X110401863Y-64515296D01*
X110440534Y-64503565D01*
X110486888Y-64499000D01*
X111138112Y-64499000D01*
X111184466Y-64503565D01*
X111184466Y-64503565D01*
G37*
G36*
X113059466Y-64503565D02*
X113098137Y-64515296D01*
X113133779Y-64534348D01*
X113165017Y-64559983D01*
X113190652Y-64591221D01*
X113209704Y-64626863D01*
X113221435Y-64665534D01*
X113226000Y-64711888D01*
X113226000Y-65788112D01*
X113221435Y-65834466D01*
X113209704Y-65873137D01*
X113190652Y-65908779D01*
X113165017Y-65940017D01*
X113133779Y-65965652D01*
X113098137Y-65984704D01*
X113059466Y-65996435D01*
X113013112Y-66001000D01*
X112361888Y-66001000D01*
X112315534Y-65996435D01*
X112276863Y-65984704D01*
X112241221Y-65965652D01*
X112209983Y-65940017D01*
X112184348Y-65908779D01*
X112165296Y-65873137D01*
X112153565Y-65834466D01*
X112149000Y-65788112D01*
X112149000Y-64711888D01*
X112153565Y-64665534D01*
X112165296Y-64626863D01*
X112184348Y-64591221D01*
X112209983Y-64559983D01*
X112241221Y-64534348D01*
X112276863Y-64515296D01*
X112315534Y-64503565D01*
X112361888Y-64499000D01*
X113013112Y-64499000D01*
X113059466Y-64503565D01*
X113059466Y-64503565D01*
G37*
G36*
X97934466Y-64503565D02*
X97973137Y-64515296D01*
X98008779Y-64534348D01*
X98040017Y-64559983D01*
X98065652Y-64591221D01*
X98084704Y-64626863D01*
X98096435Y-64665534D01*
X98101000Y-64711888D01*
X98101000Y-65788112D01*
X98096435Y-65834466D01*
X98084704Y-65873137D01*
X98065652Y-65908779D01*
X98040017Y-65940017D01*
X98008779Y-65965652D01*
X97973137Y-65984704D01*
X97934466Y-65996435D01*
X97888112Y-66001000D01*
X97236888Y-66001000D01*
X97190534Y-65996435D01*
X97151863Y-65984704D01*
X97116221Y-65965652D01*
X97084983Y-65940017D01*
X97059348Y-65908779D01*
X97040296Y-65873137D01*
X97028565Y-65834466D01*
X97024000Y-65788112D01*
X97024000Y-64711888D01*
X97028565Y-64665534D01*
X97040296Y-64626863D01*
X97059348Y-64591221D01*
X97084983Y-64559983D01*
X97116221Y-64534348D01*
X97151863Y-64515296D01*
X97190534Y-64503565D01*
X97236888Y-64499000D01*
X97888112Y-64499000D01*
X97934466Y-64503565D01*
X97934466Y-64503565D01*
G37*
G36*
X99809466Y-64503565D02*
X99848137Y-64515296D01*
X99883779Y-64534348D01*
X99915017Y-64559983D01*
X99940652Y-64591221D01*
X99959704Y-64626863D01*
X99971435Y-64665534D01*
X99976000Y-64711888D01*
X99976000Y-65788112D01*
X99971435Y-65834466D01*
X99959704Y-65873137D01*
X99940652Y-65908779D01*
X99915017Y-65940017D01*
X99883779Y-65965652D01*
X99848137Y-65984704D01*
X99809466Y-65996435D01*
X99763112Y-66001000D01*
X99111888Y-66001000D01*
X99065534Y-65996435D01*
X99026863Y-65984704D01*
X98991221Y-65965652D01*
X98959983Y-65940017D01*
X98934348Y-65908779D01*
X98915296Y-65873137D01*
X98903565Y-65834466D01*
X98899000Y-65788112D01*
X98899000Y-64711888D01*
X98903565Y-64665534D01*
X98915296Y-64626863D01*
X98934348Y-64591221D01*
X98959983Y-64559983D01*
X98991221Y-64534348D01*
X99026863Y-64515296D01*
X99065534Y-64503565D01*
X99111888Y-64499000D01*
X99763112Y-64499000D01*
X99809466Y-64503565D01*
X99809466Y-64503565D01*
G37*
G36*
X93901010Y-65749820D02*
X92998910Y-65749820D01*
X92998910Y-64748660D01*
X93901010Y-64748660D01*
X93901010Y-65749820D01*
X93901010Y-65749820D01*
G37*
G36*
X92001090Y-65749820D02*
X91098990Y-65749820D01*
X91098990Y-64748660D01*
X92001090Y-64748660D01*
X92001090Y-65749820D01*
X92001090Y-65749820D01*
G37*
G36*
X122030442Y-63875518D02*
X122096627Y-63882037D01*
X122209853Y-63916384D01*
X122266467Y-63933557D01*
X122354299Y-63980505D01*
X122422991Y-64017222D01*
X122458729Y-64046552D01*
X122560186Y-64129814D01*
X122643448Y-64231271D01*
X122672778Y-64267009D01*
X122672779Y-64267011D01*
X122756443Y-64423533D01*
X122756443Y-64423534D01*
X122807963Y-64593373D01*
X122825359Y-64770000D01*
X122807963Y-64946627D01*
X122773616Y-65059853D01*
X122756443Y-65116467D01*
X122682348Y-65255087D01*
X122672778Y-65272991D01*
X122643448Y-65308729D01*
X122560186Y-65410186D01*
X122458729Y-65493448D01*
X122422991Y-65522778D01*
X122422989Y-65522779D01*
X122266467Y-65606443D01*
X122209853Y-65623616D01*
X122096627Y-65657963D01*
X122030442Y-65664482D01*
X121964260Y-65671000D01*
X121875740Y-65671000D01*
X121809558Y-65664482D01*
X121743373Y-65657963D01*
X121630147Y-65623616D01*
X121573533Y-65606443D01*
X121417011Y-65522779D01*
X121417009Y-65522778D01*
X121381271Y-65493448D01*
X121279814Y-65410186D01*
X121196552Y-65308729D01*
X121167222Y-65272991D01*
X121157652Y-65255087D01*
X121083557Y-65116467D01*
X121066384Y-65059853D01*
X121032037Y-64946627D01*
X121014641Y-64770000D01*
X121032037Y-64593373D01*
X121083557Y-64423534D01*
X121083557Y-64423533D01*
X121167221Y-64267011D01*
X121167222Y-64267009D01*
X121196552Y-64231271D01*
X121279814Y-64129814D01*
X121381271Y-64046552D01*
X121417009Y-64017222D01*
X121485701Y-63980505D01*
X121573533Y-63933557D01*
X121630147Y-63916384D01*
X121743373Y-63882037D01*
X121809558Y-63875518D01*
X121875740Y-63869000D01*
X121964260Y-63869000D01*
X122030442Y-63875518D01*
X122030442Y-63875518D01*
G37*
G36*
X88375442Y-63875518D02*
X88441627Y-63882037D01*
X88554853Y-63916384D01*
X88611467Y-63933557D01*
X88699299Y-63980505D01*
X88767991Y-64017222D01*
X88803729Y-64046552D01*
X88905186Y-64129814D01*
X88988448Y-64231271D01*
X89017778Y-64267009D01*
X89017779Y-64267011D01*
X89101443Y-64423533D01*
X89101443Y-64423534D01*
X89152963Y-64593373D01*
X89170359Y-64770000D01*
X89152963Y-64946627D01*
X89118616Y-65059853D01*
X89101443Y-65116467D01*
X89027348Y-65255087D01*
X89017778Y-65272991D01*
X88988448Y-65308729D01*
X88905186Y-65410186D01*
X88803729Y-65493448D01*
X88767991Y-65522778D01*
X88767989Y-65522779D01*
X88611467Y-65606443D01*
X88554853Y-65623616D01*
X88441627Y-65657963D01*
X88375442Y-65664482D01*
X88309260Y-65671000D01*
X88220740Y-65671000D01*
X88154558Y-65664482D01*
X88088373Y-65657963D01*
X87975147Y-65623616D01*
X87918533Y-65606443D01*
X87762011Y-65522779D01*
X87762009Y-65522778D01*
X87726271Y-65493448D01*
X87624814Y-65410186D01*
X87541552Y-65308729D01*
X87512222Y-65272991D01*
X87502652Y-65255087D01*
X87428557Y-65116467D01*
X87411384Y-65059853D01*
X87377037Y-64946627D01*
X87359641Y-64770000D01*
X87377037Y-64593373D01*
X87428557Y-64423534D01*
X87428557Y-64423533D01*
X87512221Y-64267011D01*
X87512222Y-64267009D01*
X87541552Y-64231271D01*
X87624814Y-64129814D01*
X87726271Y-64046552D01*
X87762009Y-64017222D01*
X87830701Y-63980505D01*
X87918533Y-63933557D01*
X87975147Y-63916384D01*
X88088373Y-63882037D01*
X88154558Y-63875518D01*
X88220740Y-63869000D01*
X88309260Y-63869000D01*
X88375442Y-63875518D01*
X88375442Y-63875518D01*
G37*
G36*
X104798500Y-62451000D02*
X103451000Y-62451000D01*
X103426614Y-62453402D01*
X103403165Y-62460515D01*
X103381554Y-62472066D01*
X103362612Y-62487612D01*
X103347066Y-62506554D01*
X103335515Y-62528165D01*
X103328402Y-62551614D01*
X103326000Y-62576000D01*
X103326000Y-63244000D01*
X103328402Y-63268386D01*
X103335515Y-63291835D01*
X103347066Y-63313446D01*
X103362612Y-63332388D01*
X103381554Y-63347934D01*
X103403165Y-63359485D01*
X103426614Y-63366598D01*
X103451000Y-63369000D01*
X106549000Y-63369000D01*
X106573386Y-63366598D01*
X106596835Y-63359485D01*
X106618446Y-63347934D01*
X106637388Y-63332388D01*
X106652934Y-63313446D01*
X106664485Y-63291835D01*
X106671598Y-63268386D01*
X106674000Y-63244000D01*
X106674000Y-62576000D01*
X106671598Y-62551614D01*
X106664485Y-62528165D01*
X106652934Y-62506554D01*
X106637388Y-62487612D01*
X106618446Y-62472066D01*
X106596835Y-62460515D01*
X106573386Y-62453402D01*
X106549000Y-62451000D01*
X105201500Y-62451000D01*
X105201500Y-60449000D01*
X109148500Y-60449000D01*
X109148500Y-62451000D01*
X108376000Y-62451000D01*
X108351614Y-62453402D01*
X108328165Y-62460515D01*
X108306554Y-62472066D01*
X108287612Y-62487612D01*
X108272066Y-62506554D01*
X108260515Y-62528165D01*
X108253402Y-62551614D01*
X108251000Y-62576000D01*
X108251000Y-64851000D01*
X101749000Y-64851000D01*
X101749000Y-62576000D01*
X101746598Y-62551614D01*
X101739485Y-62528165D01*
X101727934Y-62506554D01*
X101712388Y-62487612D01*
X101693446Y-62472066D01*
X101671835Y-62460515D01*
X101648386Y-62453402D01*
X101624000Y-62451000D01*
X100851500Y-62451000D01*
X100851500Y-60449000D01*
X104798500Y-60449000D01*
X104798500Y-62451000D01*
X104798500Y-62451000D01*
G37*
G36*
X99809466Y-62503565D02*
X99848137Y-62515296D01*
X99883779Y-62534348D01*
X99915017Y-62559983D01*
X99940652Y-62591221D01*
X99959704Y-62626863D01*
X99971435Y-62665534D01*
X99976000Y-62711888D01*
X99976000Y-63788112D01*
X99971435Y-63834466D01*
X99959704Y-63873137D01*
X99940652Y-63908779D01*
X99915017Y-63940017D01*
X99883779Y-63965652D01*
X99848137Y-63984704D01*
X99809466Y-63996435D01*
X99763112Y-64001000D01*
X99111888Y-64001000D01*
X99065534Y-63996435D01*
X99026863Y-63984704D01*
X98991221Y-63965652D01*
X98959983Y-63940017D01*
X98934348Y-63908779D01*
X98915296Y-63873137D01*
X98903565Y-63834466D01*
X98899000Y-63788112D01*
X98899000Y-62711888D01*
X98903565Y-62665534D01*
X98915296Y-62626863D01*
X98934348Y-62591221D01*
X98959983Y-62559983D01*
X98991221Y-62534348D01*
X99026863Y-62515296D01*
X99065534Y-62503565D01*
X99111888Y-62499000D01*
X99763112Y-62499000D01*
X99809466Y-62503565D01*
X99809466Y-62503565D01*
G37*
G36*
X97934466Y-62503565D02*
X97973137Y-62515296D01*
X98008779Y-62534348D01*
X98040017Y-62559983D01*
X98065652Y-62591221D01*
X98084704Y-62626863D01*
X98096435Y-62665534D01*
X98101000Y-62711888D01*
X98101000Y-63788112D01*
X98096435Y-63834466D01*
X98084704Y-63873137D01*
X98065652Y-63908779D01*
X98040017Y-63940017D01*
X98008779Y-63965652D01*
X97973137Y-63984704D01*
X97934466Y-63996435D01*
X97888112Y-64001000D01*
X97236888Y-64001000D01*
X97190534Y-63996435D01*
X97151863Y-63984704D01*
X97116221Y-63965652D01*
X97084983Y-63940017D01*
X97059348Y-63908779D01*
X97040296Y-63873137D01*
X97028565Y-63834466D01*
X97024000Y-63788112D01*
X97024000Y-62711888D01*
X97028565Y-62665534D01*
X97040296Y-62626863D01*
X97059348Y-62591221D01*
X97084983Y-62559983D01*
X97116221Y-62534348D01*
X97151863Y-62515296D01*
X97190534Y-62503565D01*
X97236888Y-62499000D01*
X97888112Y-62499000D01*
X97934466Y-62503565D01*
X97934466Y-62503565D01*
G37*
G36*
X113059466Y-62503565D02*
X113098137Y-62515296D01*
X113133779Y-62534348D01*
X113165017Y-62559983D01*
X113190652Y-62591221D01*
X113209704Y-62626863D01*
X113221435Y-62665534D01*
X113226000Y-62711888D01*
X113226000Y-63788112D01*
X113221435Y-63834466D01*
X113209704Y-63873137D01*
X113190652Y-63908779D01*
X113165017Y-63940017D01*
X113133779Y-63965652D01*
X113098137Y-63984704D01*
X113059466Y-63996435D01*
X113013112Y-64001000D01*
X112361888Y-64001000D01*
X112315534Y-63996435D01*
X112276863Y-63984704D01*
X112241221Y-63965652D01*
X112209983Y-63940017D01*
X112184348Y-63908779D01*
X112165296Y-63873137D01*
X112153565Y-63834466D01*
X112149000Y-63788112D01*
X112149000Y-62711888D01*
X112153565Y-62665534D01*
X112165296Y-62626863D01*
X112184348Y-62591221D01*
X112209983Y-62559983D01*
X112241221Y-62534348D01*
X112276863Y-62515296D01*
X112315534Y-62503565D01*
X112361888Y-62499000D01*
X113013112Y-62499000D01*
X113059466Y-62503565D01*
X113059466Y-62503565D01*
G37*
G36*
X111184466Y-62503565D02*
X111223137Y-62515296D01*
X111258779Y-62534348D01*
X111290017Y-62559983D01*
X111315652Y-62591221D01*
X111334704Y-62626863D01*
X111346435Y-62665534D01*
X111351000Y-62711888D01*
X111351000Y-63788112D01*
X111346435Y-63834466D01*
X111334704Y-63873137D01*
X111315652Y-63908779D01*
X111290017Y-63940017D01*
X111258779Y-63965652D01*
X111223137Y-63984704D01*
X111184466Y-63996435D01*
X111138112Y-64001000D01*
X110486888Y-64001000D01*
X110440534Y-63996435D01*
X110401863Y-63984704D01*
X110366221Y-63965652D01*
X110334983Y-63940017D01*
X110309348Y-63908779D01*
X110290296Y-63873137D01*
X110278565Y-63834466D01*
X110274000Y-63788112D01*
X110274000Y-62711888D01*
X110278565Y-62665534D01*
X110290296Y-62626863D01*
X110309348Y-62591221D01*
X110334983Y-62559983D01*
X110366221Y-62534348D01*
X110401863Y-62515296D01*
X110440534Y-62503565D01*
X110486888Y-62499000D01*
X111138112Y-62499000D01*
X111184466Y-62503565D01*
X111184466Y-62503565D01*
G37*
G36*
X94301000Y-63801000D02*
X93199000Y-63801000D01*
X93199000Y-62699000D01*
X94301000Y-62699000D01*
X94301000Y-63801000D01*
X94301000Y-63801000D01*
G37*
G36*
X91801000Y-63801000D02*
X90699000Y-63801000D01*
X90699000Y-62699000D01*
X91801000Y-62699000D01*
X91801000Y-63801000D01*
X91801000Y-63801000D01*
G37*
G36*
X89166000Y-63131000D02*
X87364000Y-63131000D01*
X87364000Y-61329000D01*
X89166000Y-61329000D01*
X89166000Y-63131000D01*
X89166000Y-63131000D01*
G37*
G36*
X122821000Y-63131000D02*
X121019000Y-63131000D01*
X121019000Y-61329000D01*
X122821000Y-61329000D01*
X122821000Y-63131000D01*
X122821000Y-63131000D01*
G37*
G36*
X111121967Y-60503565D02*
X111160638Y-60515296D01*
X111196280Y-60534348D01*
X111227518Y-60559983D01*
X111253153Y-60591221D01*
X111272205Y-60626863D01*
X111283936Y-60665534D01*
X111288501Y-60711888D01*
X111288501Y-61788112D01*
X111283936Y-61834466D01*
X111272205Y-61873137D01*
X111253153Y-61908779D01*
X111227518Y-61940017D01*
X111196280Y-61965652D01*
X111160638Y-61984704D01*
X111121967Y-61996435D01*
X111075613Y-62001000D01*
X110424389Y-62001000D01*
X110378035Y-61996435D01*
X110339364Y-61984704D01*
X110303722Y-61965652D01*
X110272484Y-61940017D01*
X110246849Y-61908779D01*
X110227797Y-61873137D01*
X110216066Y-61834466D01*
X110211501Y-61788112D01*
X110211501Y-60711888D01*
X110216066Y-60665534D01*
X110227797Y-60626863D01*
X110246849Y-60591221D01*
X110272484Y-60559983D01*
X110303722Y-60534348D01*
X110339364Y-60515296D01*
X110378035Y-60503565D01*
X110424389Y-60499000D01*
X111075613Y-60499000D01*
X111121967Y-60503565D01*
X111121967Y-60503565D01*
G37*
G36*
X112996967Y-60503565D02*
X113035638Y-60515296D01*
X113071280Y-60534348D01*
X113102518Y-60559983D01*
X113128153Y-60591221D01*
X113147205Y-60626863D01*
X113158936Y-60665534D01*
X113163501Y-60711888D01*
X113163501Y-61788112D01*
X113158936Y-61834466D01*
X113147205Y-61873137D01*
X113128153Y-61908779D01*
X113102518Y-61940017D01*
X113071280Y-61965652D01*
X113035638Y-61984704D01*
X112996967Y-61996435D01*
X112950613Y-62001000D01*
X112299389Y-62001000D01*
X112253035Y-61996435D01*
X112214364Y-61984704D01*
X112178722Y-61965652D01*
X112147484Y-61940017D01*
X112121849Y-61908779D01*
X112102797Y-61873137D01*
X112091066Y-61834466D01*
X112086501Y-61788112D01*
X112086501Y-60711888D01*
X112091066Y-60665534D01*
X112102797Y-60626863D01*
X112121849Y-60591221D01*
X112147484Y-60559983D01*
X112178722Y-60534348D01*
X112214364Y-60515296D01*
X112253035Y-60503565D01*
X112299389Y-60499000D01*
X112950613Y-60499000D01*
X112996967Y-60503565D01*
X112996967Y-60503565D01*
G37*
G36*
X97934466Y-60503565D02*
X97973137Y-60515296D01*
X98008779Y-60534348D01*
X98040017Y-60559983D01*
X98065652Y-60591221D01*
X98084704Y-60626863D01*
X98096435Y-60665534D01*
X98101000Y-60711888D01*
X98101000Y-61788112D01*
X98096435Y-61834466D01*
X98084704Y-61873137D01*
X98065652Y-61908779D01*
X98040017Y-61940017D01*
X98008779Y-61965652D01*
X97973137Y-61984704D01*
X97934466Y-61996435D01*
X97888112Y-62001000D01*
X97236888Y-62001000D01*
X97190534Y-61996435D01*
X97151863Y-61984704D01*
X97116221Y-61965652D01*
X97084983Y-61940017D01*
X97059348Y-61908779D01*
X97040296Y-61873137D01*
X97028565Y-61834466D01*
X97024000Y-61788112D01*
X97024000Y-60711888D01*
X97028565Y-60665534D01*
X97040296Y-60626863D01*
X97059348Y-60591221D01*
X97084983Y-60559983D01*
X97116221Y-60534348D01*
X97151863Y-60515296D01*
X97190534Y-60503565D01*
X97236888Y-60499000D01*
X97888112Y-60499000D01*
X97934466Y-60503565D01*
X97934466Y-60503565D01*
G37*
G36*
X99809466Y-60503565D02*
X99848137Y-60515296D01*
X99883779Y-60534348D01*
X99915017Y-60559983D01*
X99940652Y-60591221D01*
X99959704Y-60626863D01*
X99971435Y-60665534D01*
X99976000Y-60711888D01*
X99976000Y-61788112D01*
X99971435Y-61834466D01*
X99959704Y-61873137D01*
X99940652Y-61908779D01*
X99915017Y-61940017D01*
X99883779Y-61965652D01*
X99848137Y-61984704D01*
X99809466Y-61996435D01*
X99763112Y-62001000D01*
X99111888Y-62001000D01*
X99065534Y-61996435D01*
X99026863Y-61984704D01*
X98991221Y-61965652D01*
X98959983Y-61940017D01*
X98934348Y-61908779D01*
X98915296Y-61873137D01*
X98903565Y-61834466D01*
X98899000Y-61788112D01*
X98899000Y-60711888D01*
X98903565Y-60665534D01*
X98915296Y-60626863D01*
X98934348Y-60591221D01*
X98959983Y-60559983D01*
X98991221Y-60534348D01*
X99026863Y-60515296D01*
X99065534Y-60503565D01*
X99111888Y-60499000D01*
X99763112Y-60499000D01*
X99809466Y-60503565D01*
X99809466Y-60503565D01*
G37*
M02*
