G04 #@! TF.GenerationSoftware,KiCad,Pcbnew,5.0.2-bee76a0~70~ubuntu18.04.1*
G04 #@! TF.CreationDate,2019-03-01T14:14:17+01:00*
G04 #@! TF.ProjectId,SINE_STIMULUS_charger,53494e45-5f53-4544-994d-554c55535f63,rev?*
G04 #@! TF.SameCoordinates,Original*
G04 #@! TF.FileFunction,Soldermask,Bot*
G04 #@! TF.FilePolarity,Negative*
%FSLAX46Y46*%
G04 Gerber Fmt 4.6, Leading zero omitted, Abs format (unit mm)*
G04 Created by KiCad (PCBNEW 5.0.2-bee76a0~70~ubuntu18.04.1) date ven. 01 mars 2019 14:14:17 CET*
%MOMM*%
%LPD*%
G01*
G04 APERTURE LIST*
%ADD10C,0.120000*%
%ADD11C,0.450000*%
%ADD12C,0.100000*%
%ADD13C,0.300000*%
G04 APERTURE END LIST*
D10*
X110500000Y-80000000D02*
X99500000Y-80000000D01*
X110857142Y-79485714D02*
X110742857Y-79542857D01*
X110514285Y-79542857D01*
X110400000Y-79485714D01*
X110342857Y-79371428D01*
X110342857Y-79314285D01*
X110400000Y-79200000D01*
X110514285Y-79142857D01*
X110685714Y-79142857D01*
X110800000Y-79085714D01*
X110857142Y-78971428D01*
X110857142Y-78914285D01*
X110800000Y-78800000D01*
X110685714Y-78742857D01*
X110514285Y-78742857D01*
X110400000Y-78800000D01*
X109828571Y-79542857D02*
X109828571Y-78742857D01*
X109828571Y-78342857D02*
X109885714Y-78400000D01*
X109828571Y-78457142D01*
X109771428Y-78400000D01*
X109828571Y-78342857D01*
X109828571Y-78457142D01*
X109257142Y-78742857D02*
X109257142Y-79542857D01*
X109257142Y-78857142D02*
X109200000Y-78800000D01*
X109085714Y-78742857D01*
X108914285Y-78742857D01*
X108800000Y-78800000D01*
X108742857Y-78914285D01*
X108742857Y-79542857D01*
X107714285Y-79485714D02*
X107828571Y-79542857D01*
X108057142Y-79542857D01*
X108171428Y-79485714D01*
X108228571Y-79371428D01*
X108228571Y-78914285D01*
X108171428Y-78800000D01*
X108057142Y-78742857D01*
X107828571Y-78742857D01*
X107714285Y-78800000D01*
X107657142Y-78914285D01*
X107657142Y-79028571D01*
X108228571Y-79142857D01*
X106285714Y-79485714D02*
X106171428Y-79542857D01*
X105942857Y-79542857D01*
X105828571Y-79485714D01*
X105771428Y-79371428D01*
X105771428Y-79314285D01*
X105828571Y-79200000D01*
X105942857Y-79142857D01*
X106114285Y-79142857D01*
X106228571Y-79085714D01*
X106285714Y-78971428D01*
X106285714Y-78914285D01*
X106228571Y-78800000D01*
X106114285Y-78742857D01*
X105942857Y-78742857D01*
X105828571Y-78800000D01*
X105428571Y-78742857D02*
X104971428Y-78742857D01*
X105257142Y-78342857D02*
X105257142Y-79371428D01*
X105200000Y-79485714D01*
X105085714Y-79542857D01*
X104971428Y-79542857D01*
X104571428Y-79542857D02*
X104571428Y-78742857D01*
X104571428Y-78342857D02*
X104628571Y-78400000D01*
X104571428Y-78457142D01*
X104514285Y-78400000D01*
X104571428Y-78342857D01*
X104571428Y-78457142D01*
X104000000Y-79542857D02*
X104000000Y-78742857D01*
X104000000Y-78857142D02*
X103942857Y-78800000D01*
X103828571Y-78742857D01*
X103657142Y-78742857D01*
X103542857Y-78800000D01*
X103485714Y-78914285D01*
X103485714Y-79542857D01*
X103485714Y-78914285D02*
X103428571Y-78800000D01*
X103314285Y-78742857D01*
X103142857Y-78742857D01*
X103028571Y-78800000D01*
X102971428Y-78914285D01*
X102971428Y-79542857D01*
X101885714Y-78742857D02*
X101885714Y-79542857D01*
X102400000Y-78742857D02*
X102400000Y-79371428D01*
X102342857Y-79485714D01*
X102228571Y-79542857D01*
X102057142Y-79542857D01*
X101942857Y-79485714D01*
X101885714Y-79428571D01*
X101142857Y-79542857D02*
X101257142Y-79485714D01*
X101314285Y-79371428D01*
X101314285Y-78342857D01*
X100171428Y-78742857D02*
X100171428Y-79542857D01*
X100685714Y-78742857D02*
X100685714Y-79371428D01*
X100628571Y-79485714D01*
X100514285Y-79542857D01*
X100342857Y-79542857D01*
X100228571Y-79485714D01*
X100171428Y-79428571D01*
X99657142Y-79485714D02*
X99542857Y-79542857D01*
X99314285Y-79542857D01*
X99200000Y-79485714D01*
X99142857Y-79371428D01*
X99142857Y-79314285D01*
X99200000Y-79200000D01*
X99314285Y-79142857D01*
X99485714Y-79142857D01*
X99600000Y-79085714D01*
X99657142Y-78971428D01*
X99657142Y-78914285D01*
X99600000Y-78800000D01*
X99485714Y-78742857D01*
X99314285Y-78742857D01*
X99200000Y-78800000D01*
D11*
X115733333Y-84540476D02*
X116828571Y-84540476D01*
X116828571Y-82240476D01*
X114966666Y-84540476D02*
X114966666Y-83007142D01*
X114966666Y-82240476D02*
X115076190Y-82350000D01*
X114966666Y-82459523D01*
X114857142Y-82350000D01*
X114966666Y-82240476D01*
X114966666Y-82459523D01*
X113871428Y-84540476D02*
X113871428Y-82240476D01*
X112995238Y-82240476D01*
X112776190Y-82350000D01*
X112666666Y-82459523D01*
X112557142Y-82678571D01*
X112557142Y-83007142D01*
X112666666Y-83226190D01*
X112776190Y-83335714D01*
X112995238Y-83445238D01*
X113871428Y-83445238D01*
X111242857Y-84540476D02*
X111461904Y-84430952D01*
X111571428Y-84321428D01*
X111680952Y-84102380D01*
X111680952Y-83445238D01*
X111571428Y-83226190D01*
X111461904Y-83116666D01*
X111242857Y-83007142D01*
X110914285Y-83007142D01*
X110695238Y-83116666D01*
X110585714Y-83226190D01*
X110476190Y-83445238D01*
X110476190Y-84102380D01*
X110585714Y-84321428D01*
X110695238Y-84430952D01*
X110914285Y-84540476D01*
X111242857Y-84540476D01*
X106423809Y-84321428D02*
X106533333Y-84430952D01*
X106861904Y-84540476D01*
X107080952Y-84540476D01*
X107409523Y-84430952D01*
X107628571Y-84211904D01*
X107738095Y-83992857D01*
X107847619Y-83554761D01*
X107847619Y-83226190D01*
X107738095Y-82788095D01*
X107628571Y-82569047D01*
X107409523Y-82350000D01*
X107080952Y-82240476D01*
X106861904Y-82240476D01*
X106533333Y-82350000D01*
X106423809Y-82459523D01*
X105438095Y-84540476D02*
X105438095Y-82240476D01*
X105438095Y-83335714D02*
X104123809Y-83335714D01*
X104123809Y-84540476D02*
X104123809Y-82240476D01*
X103138095Y-83883333D02*
X102042857Y-83883333D01*
X103357142Y-84540476D02*
X102590476Y-82240476D01*
X101823809Y-84540476D01*
X99742857Y-84540476D02*
X100509523Y-83445238D01*
X101057142Y-84540476D02*
X101057142Y-82240476D01*
X100180952Y-82240476D01*
X99961904Y-82350000D01*
X99852380Y-82459523D01*
X99742857Y-82678571D01*
X99742857Y-83007142D01*
X99852380Y-83226190D01*
X99961904Y-83335714D01*
X100180952Y-83445238D01*
X101057142Y-83445238D01*
X97552380Y-82350000D02*
X97771428Y-82240476D01*
X98100000Y-82240476D01*
X98428571Y-82350000D01*
X98647619Y-82569047D01*
X98757142Y-82788095D01*
X98866666Y-83226190D01*
X98866666Y-83554761D01*
X98757142Y-83992857D01*
X98647619Y-84211904D01*
X98428571Y-84430952D01*
X98100000Y-84540476D01*
X97880952Y-84540476D01*
X97552380Y-84430952D01*
X97442857Y-84321428D01*
X97442857Y-83554761D01*
X97880952Y-83554761D01*
X96457142Y-83335714D02*
X95690476Y-83335714D01*
X95361904Y-84540476D02*
X96457142Y-84540476D01*
X96457142Y-82240476D01*
X95361904Y-82240476D01*
X93061904Y-84540476D02*
X93828571Y-83445238D01*
X94376190Y-84540476D02*
X94376190Y-82240476D01*
X93500000Y-82240476D01*
X93280952Y-82350000D01*
X93171428Y-82459523D01*
X93061904Y-82678571D01*
X93061904Y-83007142D01*
X93171428Y-83226190D01*
X93280952Y-83335714D01*
X93500000Y-83445238D01*
X94376190Y-83445238D01*
D12*
X88948809Y-86470714D02*
X88948809Y-86423095D01*
X88925000Y-86375476D01*
X88901190Y-86351666D01*
X88853571Y-86327857D01*
X88758333Y-86304047D01*
X88639285Y-86304047D01*
X88544047Y-86327857D01*
X88496428Y-86351666D01*
X88472619Y-86375476D01*
X88448809Y-86423095D01*
X88448809Y-86470714D01*
X88472619Y-86518333D01*
X88496428Y-86542142D01*
X88544047Y-86565952D01*
X88639285Y-86589761D01*
X88758333Y-86589761D01*
X88853571Y-86565952D01*
X88901190Y-86542142D01*
X88925000Y-86518333D01*
X88948809Y-86470714D01*
X88901190Y-86113571D02*
X88925000Y-86089761D01*
X88948809Y-86042142D01*
X88948809Y-85923095D01*
X88925000Y-85875476D01*
X88901190Y-85851666D01*
X88853571Y-85827857D01*
X88805952Y-85827857D01*
X88734523Y-85851666D01*
X88448809Y-86137380D01*
X88448809Y-85827857D01*
X88972619Y-85256428D02*
X88329761Y-85685000D01*
X88448809Y-84827857D02*
X88448809Y-85113571D01*
X88448809Y-84970714D02*
X88948809Y-84970714D01*
X88877380Y-85018333D01*
X88829761Y-85065952D01*
X88805952Y-85113571D01*
X88448809Y-84589761D02*
X88448809Y-84494523D01*
X88472619Y-84446904D01*
X88496428Y-84423095D01*
X88567857Y-84375476D01*
X88663095Y-84351666D01*
X88853571Y-84351666D01*
X88901190Y-84375476D01*
X88925000Y-84399285D01*
X88948809Y-84446904D01*
X88948809Y-84542142D01*
X88925000Y-84589761D01*
X88901190Y-84613571D01*
X88853571Y-84637380D01*
X88734523Y-84637380D01*
X88686904Y-84613571D01*
X88663095Y-84589761D01*
X88639285Y-84542142D01*
X88639285Y-84446904D01*
X88663095Y-84399285D01*
X88686904Y-84375476D01*
X88734523Y-84351666D01*
X88448809Y-81185000D02*
X88686904Y-81351666D01*
X88448809Y-81470714D02*
X88948809Y-81470714D01*
X88948809Y-81280238D01*
X88925000Y-81232619D01*
X88901190Y-81208809D01*
X88853571Y-81185000D01*
X88782142Y-81185000D01*
X88734523Y-81208809D01*
X88710714Y-81232619D01*
X88686904Y-81280238D01*
X88686904Y-81470714D01*
X88710714Y-80970714D02*
X88710714Y-80804047D01*
X88448809Y-80732619D02*
X88448809Y-80970714D01*
X88948809Y-80970714D01*
X88948809Y-80732619D01*
X88948809Y-80589761D02*
X88448809Y-80423095D01*
X88948809Y-80256428D01*
X88448809Y-79446904D02*
X88448809Y-79732619D01*
X88448809Y-79589761D02*
X88948809Y-79589761D01*
X88877380Y-79637380D01*
X88829761Y-79685000D01*
X88805952Y-79732619D01*
X87598809Y-86351666D02*
X87860714Y-86351666D01*
X87908333Y-86375476D01*
X87932142Y-86423095D01*
X87932142Y-86518333D01*
X87908333Y-86565952D01*
X87622619Y-86351666D02*
X87598809Y-86399285D01*
X87598809Y-86518333D01*
X87622619Y-86565952D01*
X87670238Y-86589761D01*
X87717857Y-86589761D01*
X87765476Y-86565952D01*
X87789285Y-86518333D01*
X87789285Y-86399285D01*
X87813095Y-86351666D01*
X87932142Y-86113571D02*
X87598809Y-86113571D01*
X87884523Y-86113571D02*
X87908333Y-86089761D01*
X87932142Y-86042142D01*
X87932142Y-85970714D01*
X87908333Y-85923095D01*
X87860714Y-85899285D01*
X87598809Y-85899285D01*
X87932142Y-85732619D02*
X87932142Y-85542142D01*
X88098809Y-85661190D02*
X87670238Y-85661190D01*
X87622619Y-85637380D01*
X87598809Y-85589761D01*
X87598809Y-85542142D01*
X87598809Y-85304047D02*
X87622619Y-85351666D01*
X87646428Y-85375476D01*
X87694047Y-85399285D01*
X87836904Y-85399285D01*
X87884523Y-85375476D01*
X87908333Y-85351666D01*
X87932142Y-85304047D01*
X87932142Y-85232619D01*
X87908333Y-85185000D01*
X87884523Y-85161190D01*
X87836904Y-85137380D01*
X87694047Y-85137380D01*
X87646428Y-85161190D01*
X87622619Y-85185000D01*
X87598809Y-85232619D01*
X87598809Y-85304047D01*
X87598809Y-84923095D02*
X87932142Y-84923095D01*
X88098809Y-84923095D02*
X88075000Y-84946904D01*
X88051190Y-84923095D01*
X88075000Y-84899285D01*
X88098809Y-84923095D01*
X88051190Y-84923095D01*
X87932142Y-84685000D02*
X87598809Y-84685000D01*
X87884523Y-84685000D02*
X87908333Y-84661190D01*
X87932142Y-84613571D01*
X87932142Y-84542142D01*
X87908333Y-84494523D01*
X87860714Y-84470714D01*
X87598809Y-84470714D01*
X87622619Y-84042142D02*
X87598809Y-84089761D01*
X87598809Y-84185000D01*
X87622619Y-84232619D01*
X87670238Y-84256428D01*
X87860714Y-84256428D01*
X87908333Y-84232619D01*
X87932142Y-84185000D01*
X87932142Y-84089761D01*
X87908333Y-84042142D01*
X87860714Y-84018333D01*
X87813095Y-84018333D01*
X87765476Y-84256428D01*
X87646428Y-83804047D02*
X87622619Y-83780238D01*
X87598809Y-83804047D01*
X87622619Y-83827857D01*
X87646428Y-83804047D01*
X87598809Y-83804047D01*
X87932142Y-83565952D02*
X87432142Y-83565952D01*
X87908333Y-83565952D02*
X87932142Y-83518333D01*
X87932142Y-83423095D01*
X87908333Y-83375476D01*
X87884523Y-83351666D01*
X87836904Y-83327857D01*
X87694047Y-83327857D01*
X87646428Y-83351666D01*
X87622619Y-83375476D01*
X87598809Y-83423095D01*
X87598809Y-83518333D01*
X87622619Y-83565952D01*
X87598809Y-83113571D02*
X87932142Y-83113571D01*
X88098809Y-83113571D02*
X88075000Y-83137380D01*
X88051190Y-83113571D01*
X88075000Y-83089761D01*
X88098809Y-83113571D01*
X88051190Y-83113571D01*
X87932142Y-82875476D02*
X87598809Y-82875476D01*
X87884523Y-82875476D02*
X87908333Y-82851666D01*
X87932142Y-82804047D01*
X87932142Y-82732619D01*
X87908333Y-82685000D01*
X87860714Y-82661190D01*
X87598809Y-82661190D01*
X87932142Y-82494523D02*
X87932142Y-82304047D01*
X88098809Y-82423095D02*
X87670238Y-82423095D01*
X87622619Y-82399285D01*
X87598809Y-82351666D01*
X87598809Y-82304047D01*
X87598809Y-82065952D02*
X87622619Y-82113571D01*
X87646428Y-82137380D01*
X87694047Y-82161190D01*
X87836904Y-82161190D01*
X87884523Y-82137380D01*
X87908333Y-82113571D01*
X87932142Y-82065952D01*
X87932142Y-81994523D01*
X87908333Y-81946904D01*
X87884523Y-81923095D01*
X87836904Y-81899285D01*
X87694047Y-81899285D01*
X87646428Y-81923095D01*
X87622619Y-81946904D01*
X87598809Y-81994523D01*
X87598809Y-82065952D01*
X87932142Y-81470714D02*
X87598809Y-81470714D01*
X87932142Y-81685000D02*
X87670238Y-81685000D01*
X87622619Y-81661190D01*
X87598809Y-81613571D01*
X87598809Y-81542142D01*
X87622619Y-81494523D01*
X87646428Y-81470714D01*
X87932142Y-81304047D02*
X87932142Y-81113571D01*
X88098809Y-81232619D02*
X87670238Y-81232619D01*
X87622619Y-81208809D01*
X87598809Y-81161190D01*
X87598809Y-81113571D01*
X87646428Y-80946904D02*
X87622619Y-80923095D01*
X87598809Y-80946904D01*
X87622619Y-80970714D01*
X87646428Y-80946904D01*
X87598809Y-80946904D01*
X87622619Y-80494523D02*
X87598809Y-80542142D01*
X87598809Y-80637380D01*
X87622619Y-80685000D01*
X87646428Y-80708809D01*
X87694047Y-80732619D01*
X87836904Y-80732619D01*
X87884523Y-80708809D01*
X87908333Y-80685000D01*
X87932142Y-80637380D01*
X87932142Y-80542142D01*
X87908333Y-80494523D01*
X87598809Y-80208809D02*
X87622619Y-80256428D01*
X87646428Y-80280238D01*
X87694047Y-80304047D01*
X87836904Y-80304047D01*
X87884523Y-80280238D01*
X87908333Y-80256428D01*
X87932142Y-80208809D01*
X87932142Y-80137380D01*
X87908333Y-80089761D01*
X87884523Y-80065952D01*
X87836904Y-80042142D01*
X87694047Y-80042142D01*
X87646428Y-80065952D01*
X87622619Y-80089761D01*
X87598809Y-80137380D01*
X87598809Y-80208809D01*
X87598809Y-79827857D02*
X87932142Y-79827857D01*
X87884523Y-79827857D02*
X87908333Y-79804047D01*
X87932142Y-79756428D01*
X87932142Y-79685000D01*
X87908333Y-79637380D01*
X87860714Y-79613571D01*
X87598809Y-79613571D01*
X87860714Y-79613571D02*
X87908333Y-79589761D01*
X87932142Y-79542142D01*
X87932142Y-79470714D01*
X87908333Y-79423095D01*
X87860714Y-79399285D01*
X87598809Y-79399285D01*
D13*
X108500000Y-88928571D02*
X109214285Y-88928571D01*
X109214285Y-87428571D01*
X108000000Y-88928571D02*
X108000000Y-87428571D01*
X106428571Y-88928571D02*
X106928571Y-88214285D01*
X107285714Y-88928571D02*
X107285714Y-87428571D01*
X106714285Y-87428571D01*
X106571428Y-87500000D01*
X106500000Y-87571428D01*
X106428571Y-87714285D01*
X106428571Y-87928571D01*
X106500000Y-88071428D01*
X106571428Y-88142857D01*
X106714285Y-88214285D01*
X107285714Y-88214285D01*
X105857142Y-87571428D02*
X105785714Y-87500000D01*
X105642857Y-87428571D01*
X105285714Y-87428571D01*
X105142857Y-87500000D01*
X105071428Y-87571428D01*
X105000000Y-87714285D01*
X105000000Y-87857142D01*
X105071428Y-88071428D01*
X105928571Y-88928571D01*
X105000000Y-88928571D01*
X103714285Y-87928571D02*
X103714285Y-88928571D01*
X104071428Y-87357142D02*
X104428571Y-88428571D01*
X103500000Y-88428571D01*
X102214285Y-87428571D02*
X102928571Y-87428571D01*
X103000000Y-88142857D01*
X102928571Y-88071428D01*
X102785714Y-88000000D01*
X102428571Y-88000000D01*
X102285714Y-88071428D01*
X102214285Y-88142857D01*
X102142857Y-88285714D01*
X102142857Y-88642857D01*
X102214285Y-88785714D01*
X102285714Y-88857142D01*
X102428571Y-88928571D01*
X102785714Y-88928571D01*
X102928571Y-88857142D01*
X103000000Y-88785714D01*
X101214285Y-87428571D02*
X101071428Y-87428571D01*
X100928571Y-87500000D01*
X100857142Y-87571428D01*
X100785714Y-87714285D01*
X100714285Y-88000000D01*
X100714285Y-88357142D01*
X100785714Y-88642857D01*
X100857142Y-88785714D01*
X100928571Y-88857142D01*
X101071428Y-88928571D01*
X101214285Y-88928571D01*
X101357142Y-88857142D01*
X101428571Y-88785714D01*
X101500000Y-88642857D01*
X101571428Y-88357142D01*
X101571428Y-88000000D01*
X101500000Y-87714285D01*
X101428571Y-87571428D01*
X101357142Y-87500000D01*
X101214285Y-87428571D01*
D12*
G36*
X122030443Y-77845519D02*
X122096627Y-77852037D01*
X122209853Y-77886384D01*
X122266467Y-77903557D01*
X122405087Y-77977652D01*
X122422991Y-77987222D01*
X122439779Y-78001000D01*
X122560186Y-78099814D01*
X122643448Y-78201271D01*
X122672778Y-78237009D01*
X122672779Y-78237011D01*
X122756443Y-78393533D01*
X122756443Y-78393534D01*
X122807963Y-78563373D01*
X122825359Y-78740000D01*
X122807963Y-78916627D01*
X122773616Y-79029853D01*
X122756443Y-79086467D01*
X122682348Y-79225087D01*
X122672778Y-79242991D01*
X122643448Y-79278729D01*
X122560186Y-79380186D01*
X122458729Y-79463448D01*
X122422991Y-79492778D01*
X122422989Y-79492779D01*
X122266467Y-79576443D01*
X122209853Y-79593616D01*
X122096627Y-79627963D01*
X122030442Y-79634482D01*
X121964260Y-79641000D01*
X121875740Y-79641000D01*
X121809558Y-79634482D01*
X121743373Y-79627963D01*
X121630147Y-79593616D01*
X121573533Y-79576443D01*
X121417011Y-79492779D01*
X121417009Y-79492778D01*
X121381271Y-79463448D01*
X121279814Y-79380186D01*
X121196552Y-79278729D01*
X121167222Y-79242991D01*
X121157652Y-79225087D01*
X121083557Y-79086467D01*
X121066384Y-79029853D01*
X121032037Y-78916627D01*
X121014641Y-78740000D01*
X121032037Y-78563373D01*
X121083557Y-78393534D01*
X121083557Y-78393533D01*
X121167221Y-78237011D01*
X121167222Y-78237009D01*
X121196552Y-78201271D01*
X121279814Y-78099814D01*
X121400221Y-78001000D01*
X121417009Y-77987222D01*
X121434913Y-77977652D01*
X121573533Y-77903557D01*
X121630147Y-77886384D01*
X121743373Y-77852037D01*
X121809557Y-77845519D01*
X121875740Y-77839000D01*
X121964260Y-77839000D01*
X122030443Y-77845519D01*
X122030443Y-77845519D01*
G37*
G36*
X88316136Y-77018253D02*
X88407312Y-77056019D01*
X88489372Y-77110850D01*
X88559150Y-77180628D01*
X88613981Y-77262688D01*
X88651747Y-77353864D01*
X88671000Y-77450656D01*
X88671000Y-77549344D01*
X88651747Y-77646136D01*
X88613981Y-77737312D01*
X88559150Y-77819372D01*
X88489372Y-77889150D01*
X88407312Y-77943981D01*
X88316136Y-77981747D01*
X88219344Y-78001000D01*
X88120656Y-78001000D01*
X88023864Y-77981747D01*
X87932688Y-77943981D01*
X87850628Y-77889150D01*
X87780850Y-77819372D01*
X87726019Y-77737312D01*
X87688253Y-77646136D01*
X87669000Y-77549344D01*
X87669000Y-77450656D01*
X87688253Y-77353864D01*
X87726019Y-77262688D01*
X87780850Y-77180628D01*
X87850628Y-77110850D01*
X87932688Y-77056019D01*
X88023864Y-77018253D01*
X88120656Y-76999000D01*
X88219344Y-76999000D01*
X88316136Y-77018253D01*
X88316136Y-77018253D01*
G37*
G36*
X122821000Y-77101000D02*
X121019000Y-77101000D01*
X121019000Y-75299000D01*
X122821000Y-75299000D01*
X122821000Y-77101000D01*
X122821000Y-77101000D01*
G37*
G36*
X88316136Y-74018253D02*
X88407312Y-74056019D01*
X88489372Y-74110850D01*
X88559150Y-74180628D01*
X88613981Y-74262688D01*
X88651747Y-74353864D01*
X88671000Y-74450656D01*
X88671000Y-74549344D01*
X88651747Y-74646136D01*
X88613981Y-74737312D01*
X88559150Y-74819372D01*
X88489372Y-74889150D01*
X88407312Y-74943981D01*
X88316136Y-74981747D01*
X88219344Y-75001000D01*
X88120656Y-75001000D01*
X88023864Y-74981747D01*
X87932688Y-74943981D01*
X87850628Y-74889150D01*
X87780850Y-74819372D01*
X87726019Y-74737312D01*
X87688253Y-74646136D01*
X87669000Y-74549344D01*
X87669000Y-74450656D01*
X87688253Y-74353864D01*
X87726019Y-74262688D01*
X87780850Y-74180628D01*
X87850628Y-74110850D01*
X87932688Y-74056019D01*
X88023864Y-74018253D01*
X88120656Y-73999000D01*
X88219344Y-73999000D01*
X88316136Y-74018253D01*
X88316136Y-74018253D01*
G37*
G36*
X104110441Y-67105518D02*
X104176626Y-67112037D01*
X104289852Y-67146384D01*
X104346466Y-67163557D01*
X104485086Y-67237652D01*
X104502990Y-67247222D01*
X104538728Y-67276552D01*
X104640185Y-67359814D01*
X104723447Y-67461271D01*
X104752777Y-67497009D01*
X104752778Y-67497011D01*
X104836442Y-67653533D01*
X104836442Y-67653534D01*
X104887962Y-67823373D01*
X104905358Y-68000000D01*
X104887962Y-68176627D01*
X104853615Y-68289853D01*
X104836442Y-68346467D01*
X104762347Y-68485087D01*
X104752777Y-68502991D01*
X104723447Y-68538729D01*
X104640185Y-68640186D01*
X104538728Y-68723448D01*
X104502990Y-68752778D01*
X104502988Y-68752779D01*
X104346466Y-68836443D01*
X104289852Y-68853616D01*
X104176626Y-68887963D01*
X104110442Y-68894481D01*
X104044259Y-68901000D01*
X103955739Y-68901000D01*
X103889556Y-68894481D01*
X103823372Y-68887963D01*
X103710146Y-68853616D01*
X103653532Y-68836443D01*
X103497010Y-68752779D01*
X103497008Y-68752778D01*
X103461270Y-68723448D01*
X103359813Y-68640186D01*
X103276551Y-68538729D01*
X103247221Y-68502991D01*
X103237651Y-68485087D01*
X103163556Y-68346467D01*
X103146383Y-68289853D01*
X103112036Y-68176627D01*
X103094640Y-68000000D01*
X103112036Y-67823373D01*
X103163556Y-67653534D01*
X103163556Y-67653533D01*
X103247220Y-67497011D01*
X103247221Y-67497009D01*
X103276551Y-67461271D01*
X103359813Y-67359814D01*
X103461270Y-67276552D01*
X103497008Y-67247222D01*
X103514912Y-67237652D01*
X103653532Y-67163557D01*
X103710146Y-67146384D01*
X103823372Y-67112037D01*
X103889557Y-67105518D01*
X103955739Y-67099000D01*
X104044259Y-67099000D01*
X104110441Y-67105518D01*
X104110441Y-67105518D01*
G37*
G36*
X101570441Y-67105518D02*
X101636626Y-67112037D01*
X101749852Y-67146384D01*
X101806466Y-67163557D01*
X101945086Y-67237652D01*
X101962990Y-67247222D01*
X101998728Y-67276552D01*
X102100185Y-67359814D01*
X102183447Y-67461271D01*
X102212777Y-67497009D01*
X102212778Y-67497011D01*
X102296442Y-67653533D01*
X102296442Y-67653534D01*
X102347962Y-67823373D01*
X102365358Y-68000000D01*
X102347962Y-68176627D01*
X102313615Y-68289853D01*
X102296442Y-68346467D01*
X102222347Y-68485087D01*
X102212777Y-68502991D01*
X102183447Y-68538729D01*
X102100185Y-68640186D01*
X101998728Y-68723448D01*
X101962990Y-68752778D01*
X101962988Y-68752779D01*
X101806466Y-68836443D01*
X101749852Y-68853616D01*
X101636626Y-68887963D01*
X101570442Y-68894481D01*
X101504259Y-68901000D01*
X101415739Y-68901000D01*
X101349556Y-68894481D01*
X101283372Y-68887963D01*
X101170146Y-68853616D01*
X101113532Y-68836443D01*
X100957010Y-68752779D01*
X100957008Y-68752778D01*
X100921270Y-68723448D01*
X100819813Y-68640186D01*
X100736551Y-68538729D01*
X100707221Y-68502991D01*
X100697651Y-68485087D01*
X100623556Y-68346467D01*
X100606383Y-68289853D01*
X100572036Y-68176627D01*
X100554640Y-68000000D01*
X100572036Y-67823373D01*
X100623556Y-67653534D01*
X100623556Y-67653533D01*
X100707220Y-67497011D01*
X100707221Y-67497009D01*
X100736551Y-67461271D01*
X100819813Y-67359814D01*
X100921270Y-67276552D01*
X100957008Y-67247222D01*
X100974912Y-67237652D01*
X101113532Y-67163557D01*
X101170146Y-67146384D01*
X101283372Y-67112037D01*
X101349557Y-67105518D01*
X101415739Y-67099000D01*
X101504259Y-67099000D01*
X101570441Y-67105518D01*
X101570441Y-67105518D01*
G37*
G36*
X109980999Y-68901000D02*
X108178999Y-68901000D01*
X108178999Y-67099000D01*
X109980999Y-67099000D01*
X109980999Y-68901000D01*
X109980999Y-68901000D01*
G37*
G36*
X106650441Y-67105518D02*
X106716626Y-67112037D01*
X106829852Y-67146384D01*
X106886466Y-67163557D01*
X107025086Y-67237652D01*
X107042990Y-67247222D01*
X107078728Y-67276552D01*
X107180185Y-67359814D01*
X107263447Y-67461271D01*
X107292777Y-67497009D01*
X107292778Y-67497011D01*
X107376442Y-67653533D01*
X107376442Y-67653534D01*
X107427962Y-67823373D01*
X107445358Y-68000000D01*
X107427962Y-68176627D01*
X107393615Y-68289853D01*
X107376442Y-68346467D01*
X107302347Y-68485087D01*
X107292777Y-68502991D01*
X107263447Y-68538729D01*
X107180185Y-68640186D01*
X107078728Y-68723448D01*
X107042990Y-68752778D01*
X107042988Y-68752779D01*
X106886466Y-68836443D01*
X106829852Y-68853616D01*
X106716626Y-68887963D01*
X106650442Y-68894481D01*
X106584259Y-68901000D01*
X106495739Y-68901000D01*
X106429556Y-68894481D01*
X106363372Y-68887963D01*
X106250146Y-68853616D01*
X106193532Y-68836443D01*
X106037010Y-68752779D01*
X106037008Y-68752778D01*
X106001270Y-68723448D01*
X105899813Y-68640186D01*
X105816551Y-68538729D01*
X105787221Y-68502991D01*
X105777651Y-68485087D01*
X105703556Y-68346467D01*
X105686383Y-68289853D01*
X105652036Y-68176627D01*
X105634640Y-68000000D01*
X105652036Y-67823373D01*
X105703556Y-67653534D01*
X105703556Y-67653533D01*
X105787220Y-67497011D01*
X105787221Y-67497009D01*
X105816551Y-67461271D01*
X105899813Y-67359814D01*
X106001270Y-67276552D01*
X106037008Y-67247222D01*
X106054912Y-67237652D01*
X106193532Y-67163557D01*
X106250146Y-67146384D01*
X106363372Y-67112037D01*
X106429557Y-67105518D01*
X106495739Y-67099000D01*
X106584259Y-67099000D01*
X106650441Y-67105518D01*
X106650441Y-67105518D01*
G37*
G36*
X88375442Y-63875518D02*
X88441627Y-63882037D01*
X88554853Y-63916384D01*
X88611467Y-63933557D01*
X88750087Y-64007652D01*
X88767991Y-64017222D01*
X88803729Y-64046552D01*
X88905186Y-64129814D01*
X88988448Y-64231271D01*
X89017778Y-64267009D01*
X89017779Y-64267011D01*
X89101443Y-64423533D01*
X89101443Y-64423534D01*
X89152963Y-64593373D01*
X89170359Y-64770000D01*
X89152963Y-64946627D01*
X89118616Y-65059853D01*
X89101443Y-65116467D01*
X89027348Y-65255087D01*
X89017778Y-65272991D01*
X88988448Y-65308729D01*
X88905186Y-65410186D01*
X88803729Y-65493448D01*
X88767991Y-65522778D01*
X88767989Y-65522779D01*
X88611467Y-65606443D01*
X88554853Y-65623616D01*
X88441627Y-65657963D01*
X88375442Y-65664482D01*
X88309260Y-65671000D01*
X88220740Y-65671000D01*
X88154558Y-65664482D01*
X88088373Y-65657963D01*
X87975147Y-65623616D01*
X87918533Y-65606443D01*
X87762011Y-65522779D01*
X87762009Y-65522778D01*
X87726271Y-65493448D01*
X87624814Y-65410186D01*
X87541552Y-65308729D01*
X87512222Y-65272991D01*
X87502652Y-65255087D01*
X87428557Y-65116467D01*
X87411384Y-65059853D01*
X87377037Y-64946627D01*
X87359641Y-64770000D01*
X87377037Y-64593373D01*
X87428557Y-64423534D01*
X87428557Y-64423533D01*
X87512221Y-64267011D01*
X87512222Y-64267009D01*
X87541552Y-64231271D01*
X87624814Y-64129814D01*
X87726271Y-64046552D01*
X87762009Y-64017222D01*
X87779913Y-64007652D01*
X87918533Y-63933557D01*
X87975147Y-63916384D01*
X88088373Y-63882037D01*
X88154558Y-63875518D01*
X88220740Y-63869000D01*
X88309260Y-63869000D01*
X88375442Y-63875518D01*
X88375442Y-63875518D01*
G37*
G36*
X122030442Y-63875518D02*
X122096627Y-63882037D01*
X122209853Y-63916384D01*
X122266467Y-63933557D01*
X122405087Y-64007652D01*
X122422991Y-64017222D01*
X122458729Y-64046552D01*
X122560186Y-64129814D01*
X122643448Y-64231271D01*
X122672778Y-64267009D01*
X122672779Y-64267011D01*
X122756443Y-64423533D01*
X122756443Y-64423534D01*
X122807963Y-64593373D01*
X122825359Y-64770000D01*
X122807963Y-64946627D01*
X122773616Y-65059853D01*
X122756443Y-65116467D01*
X122682348Y-65255087D01*
X122672778Y-65272991D01*
X122643448Y-65308729D01*
X122560186Y-65410186D01*
X122458729Y-65493448D01*
X122422991Y-65522778D01*
X122422989Y-65522779D01*
X122266467Y-65606443D01*
X122209853Y-65623616D01*
X122096627Y-65657963D01*
X122030442Y-65664482D01*
X121964260Y-65671000D01*
X121875740Y-65671000D01*
X121809558Y-65664482D01*
X121743373Y-65657963D01*
X121630147Y-65623616D01*
X121573533Y-65606443D01*
X121417011Y-65522779D01*
X121417009Y-65522778D01*
X121381271Y-65493448D01*
X121279814Y-65410186D01*
X121196552Y-65308729D01*
X121167222Y-65272991D01*
X121157652Y-65255087D01*
X121083557Y-65116467D01*
X121066384Y-65059853D01*
X121032037Y-64946627D01*
X121014641Y-64770000D01*
X121032037Y-64593373D01*
X121083557Y-64423534D01*
X121083557Y-64423533D01*
X121167221Y-64267011D01*
X121167222Y-64267009D01*
X121196552Y-64231271D01*
X121279814Y-64129814D01*
X121381271Y-64046552D01*
X121417009Y-64017222D01*
X121434913Y-64007652D01*
X121573533Y-63933557D01*
X121630147Y-63916384D01*
X121743373Y-63882037D01*
X121809558Y-63875518D01*
X121875740Y-63869000D01*
X121964260Y-63869000D01*
X122030442Y-63875518D01*
X122030442Y-63875518D01*
G37*
G36*
X89166000Y-63131000D02*
X87364000Y-63131000D01*
X87364000Y-61329000D01*
X89166000Y-61329000D01*
X89166000Y-63131000D01*
X89166000Y-63131000D01*
G37*
G36*
X122821000Y-63131000D02*
X121019000Y-63131000D01*
X121019000Y-61329000D01*
X122821000Y-61329000D01*
X122821000Y-63131000D01*
X122821000Y-63131000D01*
G37*
M02*
