G04 #@! TF.GenerationSoftware,KiCad,Pcbnew,5.0.2-bee76a0~70~ubuntu18.04.1*
G04 #@! TF.CreationDate,2019-03-01T14:14:17+01:00*
G04 #@! TF.ProjectId,SINE_STIMULUS_charger,53494e45-5f53-4544-994d-554c55535f63,rev?*
G04 #@! TF.SameCoordinates,Original*
G04 #@! TF.FileFunction,Legend,Bot*
G04 #@! TF.FilePolarity,Positive*
%FSLAX46Y46*%
G04 Gerber Fmt 4.6, Leading zero omitted, Abs format (unit mm)*
G04 Created by KiCad (PCBNEW 5.0.2-bee76a0~70~ubuntu18.04.1) date ven. 01 mars 2019 14:14:17 CET*
%MOMM*%
%LPD*%
G01*
G04 APERTURE LIST*
%ADD10C,0.150000*%
%ADD11C,0.100000*%
%ADD12C,0.160000*%
%ADD13C,0.140000*%
%ADD14C,0.120000*%
%ADD15C,0.450000*%
%ADD16C,0.300000*%
%ADD17R,1.802000X1.802000*%
%ADD18O,1.802000X1.802000*%
%ADD19C,1.002000*%
G04 APERTURE END LIST*
D10*
G36*
X91500000Y-81000000D02*
X118500000Y-81000000D01*
X118500000Y-85500000D01*
X91500000Y-85500000D01*
X91500000Y-81000000D01*
G37*
X91500000Y-81000000D02*
X118500000Y-81000000D01*
X118500000Y-85500000D01*
X91500000Y-85500000D01*
X91500000Y-81000000D01*
D11*
X98750000Y-61200000D02*
X98750000Y-65800000D01*
X108000000Y-61200000D02*
X108000000Y-65800000D01*
X119750000Y-61200000D02*
X119750000Y-65800000D01*
D12*
X98053142Y-61701904D02*
X97900761Y-61701904D01*
X97824571Y-61740000D01*
X97748380Y-61816190D01*
X97710285Y-61968571D01*
X97710285Y-62235238D01*
X97748380Y-62387619D01*
X97824571Y-62463809D01*
X97900761Y-62501904D01*
X98053142Y-62501904D01*
X98129333Y-62463809D01*
X98205523Y-62387619D01*
X98243619Y-62235238D01*
X98243619Y-61968571D01*
X98205523Y-61816190D01*
X98129333Y-61740000D01*
X98053142Y-61701904D01*
X97367428Y-61701904D02*
X97367428Y-62349523D01*
X97329333Y-62425714D01*
X97291238Y-62463809D01*
X97215047Y-62501904D01*
X97062666Y-62501904D01*
X96986476Y-62463809D01*
X96948380Y-62425714D01*
X96910285Y-62349523D01*
X96910285Y-61701904D01*
X96643619Y-61701904D02*
X96186476Y-61701904D01*
X96415047Y-62501904D02*
X96415047Y-61701904D01*
X95310285Y-62425714D02*
X95272190Y-62463809D01*
X95310285Y-62501904D01*
X95348380Y-62463809D01*
X95310285Y-62425714D01*
X95310285Y-62501904D01*
X95310285Y-62006666D02*
X95272190Y-62044761D01*
X95310285Y-62082857D01*
X95348380Y-62044761D01*
X95310285Y-62006666D01*
X95310285Y-62082857D01*
X98281714Y-63061904D02*
X97786476Y-63061904D01*
X98053142Y-63366666D01*
X97938857Y-63366666D01*
X97862666Y-63404761D01*
X97824571Y-63442857D01*
X97786476Y-63519047D01*
X97786476Y-63709523D01*
X97824571Y-63785714D01*
X97862666Y-63823809D01*
X97938857Y-63861904D01*
X98167428Y-63861904D01*
X98243619Y-63823809D01*
X98281714Y-63785714D01*
X96948380Y-63061904D02*
X96681714Y-63861904D01*
X96415047Y-63061904D01*
X98205523Y-65221904D02*
X98205523Y-64688571D01*
X98205523Y-64764761D02*
X98167428Y-64726666D01*
X98091238Y-64688571D01*
X97976952Y-64688571D01*
X97900761Y-64726666D01*
X97862666Y-64802857D01*
X97862666Y-65221904D01*
X97862666Y-64802857D02*
X97824571Y-64726666D01*
X97748380Y-64688571D01*
X97634095Y-64688571D01*
X97557904Y-64726666D01*
X97519809Y-64802857D01*
X97519809Y-65221904D01*
X96796000Y-65221904D02*
X96796000Y-64802857D01*
X96834095Y-64726666D01*
X96910285Y-64688571D01*
X97062666Y-64688571D01*
X97138857Y-64726666D01*
X96796000Y-65183809D02*
X96872190Y-65221904D01*
X97062666Y-65221904D01*
X97138857Y-65183809D01*
X97176952Y-65107619D01*
X97176952Y-65031428D01*
X97138857Y-64955238D01*
X97062666Y-64917142D01*
X96872190Y-64917142D01*
X96796000Y-64879047D01*
X96491238Y-65221904D02*
X96072190Y-64688571D01*
X96491238Y-64688571D02*
X96072190Y-65221904D01*
X95196000Y-64498095D02*
X95157904Y-64460000D01*
X95081714Y-64421904D01*
X94891238Y-64421904D01*
X94815047Y-64460000D01*
X94776952Y-64498095D01*
X94738857Y-64574285D01*
X94738857Y-64650476D01*
X94776952Y-64764761D01*
X95234095Y-65221904D01*
X94738857Y-65221904D01*
X94015047Y-64421904D02*
X94396000Y-64421904D01*
X94434095Y-64802857D01*
X94396000Y-64764761D01*
X94319809Y-64726666D01*
X94129333Y-64726666D01*
X94053142Y-64764761D01*
X94015047Y-64802857D01*
X93976952Y-64879047D01*
X93976952Y-65069523D01*
X94015047Y-65145714D01*
X94053142Y-65183809D01*
X94129333Y-65221904D01*
X94319809Y-65221904D01*
X94396000Y-65183809D01*
X94434095Y-65145714D01*
X93481714Y-64421904D02*
X93405523Y-64421904D01*
X93329333Y-64460000D01*
X93291238Y-64498095D01*
X93253142Y-64574285D01*
X93215047Y-64726666D01*
X93215047Y-64917142D01*
X93253142Y-65069523D01*
X93291238Y-65145714D01*
X93329333Y-65183809D01*
X93405523Y-65221904D01*
X93481714Y-65221904D01*
X93557904Y-65183809D01*
X93596000Y-65145714D01*
X93634095Y-65069523D01*
X93672190Y-64917142D01*
X93672190Y-64726666D01*
X93634095Y-64574285D01*
X93596000Y-64498095D01*
X93557904Y-64460000D01*
X93481714Y-64421904D01*
X92872190Y-65221904D02*
X92872190Y-64688571D01*
X92872190Y-64764761D02*
X92834095Y-64726666D01*
X92757904Y-64688571D01*
X92643619Y-64688571D01*
X92567428Y-64726666D01*
X92529333Y-64802857D01*
X92529333Y-65221904D01*
X92529333Y-64802857D02*
X92491238Y-64726666D01*
X92415047Y-64688571D01*
X92300761Y-64688571D01*
X92224571Y-64726666D01*
X92186476Y-64802857D01*
X92186476Y-65221904D01*
X91843619Y-64993333D02*
X91462666Y-64993333D01*
X91919809Y-65221904D02*
X91653142Y-64421904D01*
X91386476Y-65221904D01*
D13*
X106951857Y-62102857D02*
X106837571Y-62140952D01*
X106799476Y-62179047D01*
X106761380Y-62255238D01*
X106761380Y-62369523D01*
X106799476Y-62445714D01*
X106837571Y-62483809D01*
X106913761Y-62521904D01*
X107218523Y-62521904D01*
X107218523Y-61721904D01*
X106951857Y-61721904D01*
X106875666Y-61760000D01*
X106837571Y-61798095D01*
X106799476Y-61874285D01*
X106799476Y-61950476D01*
X106837571Y-62026666D01*
X106875666Y-62064761D01*
X106951857Y-62102857D01*
X107218523Y-62102857D01*
X106456619Y-62293333D02*
X106075666Y-62293333D01*
X106532809Y-62521904D02*
X106266142Y-61721904D01*
X105999476Y-62521904D01*
X105847095Y-61721904D02*
X105389952Y-61721904D01*
X105618523Y-62521904D02*
X105618523Y-61721904D01*
X104513761Y-62445714D02*
X104475666Y-62483809D01*
X104513761Y-62521904D01*
X104551857Y-62483809D01*
X104513761Y-62445714D01*
X104513761Y-62521904D01*
X104513761Y-62026666D02*
X104475666Y-62064761D01*
X104513761Y-62102857D01*
X104551857Y-62064761D01*
X104513761Y-62026666D01*
X104513761Y-62102857D01*
X107294714Y-63061904D02*
X106799476Y-63061904D01*
X107066142Y-63366666D01*
X106951857Y-63366666D01*
X106875666Y-63404761D01*
X106837571Y-63442857D01*
X106799476Y-63519047D01*
X106799476Y-63709523D01*
X106837571Y-63785714D01*
X106875666Y-63823809D01*
X106951857Y-63861904D01*
X107180428Y-63861904D01*
X107256619Y-63823809D01*
X107294714Y-63785714D01*
X106456619Y-63785714D02*
X106418523Y-63823809D01*
X106456619Y-63861904D01*
X106494714Y-63823809D01*
X106456619Y-63785714D01*
X106456619Y-63861904D01*
X106151857Y-63061904D02*
X105618523Y-63061904D01*
X105961380Y-63861904D01*
X104818523Y-63061904D02*
X104551857Y-63861904D01*
X104285190Y-63061904D01*
X107218523Y-64668571D02*
X106609000Y-64897142D01*
X107218523Y-65125714D01*
X105199476Y-65201904D02*
X105656619Y-65201904D01*
X105428047Y-65201904D02*
X105428047Y-64401904D01*
X105504238Y-64516190D01*
X105580428Y-64592380D01*
X105656619Y-64630476D01*
X104704238Y-64401904D02*
X104628047Y-64401904D01*
X104551857Y-64440000D01*
X104513761Y-64478095D01*
X104475666Y-64554285D01*
X104437571Y-64706666D01*
X104437571Y-64897142D01*
X104475666Y-65049523D01*
X104513761Y-65125714D01*
X104551857Y-65163809D01*
X104628047Y-65201904D01*
X104704238Y-65201904D01*
X104780428Y-65163809D01*
X104818523Y-65125714D01*
X104856619Y-65049523D01*
X104894714Y-64897142D01*
X104894714Y-64706666D01*
X104856619Y-64554285D01*
X104818523Y-64478095D01*
X104780428Y-64440000D01*
X104704238Y-64401904D01*
X103942333Y-64401904D02*
X103866142Y-64401904D01*
X103789952Y-64440000D01*
X103751857Y-64478095D01*
X103713761Y-64554285D01*
X103675666Y-64706666D01*
X103675666Y-64897142D01*
X103713761Y-65049523D01*
X103751857Y-65125714D01*
X103789952Y-65163809D01*
X103866142Y-65201904D01*
X103942333Y-65201904D01*
X104018523Y-65163809D01*
X104056619Y-65125714D01*
X104094714Y-65049523D01*
X104132809Y-64897142D01*
X104132809Y-64706666D01*
X104094714Y-64554285D01*
X104056619Y-64478095D01*
X104018523Y-64440000D01*
X103942333Y-64401904D01*
X103332809Y-65201904D02*
X103332809Y-64668571D01*
X103332809Y-64744761D02*
X103294714Y-64706666D01*
X103218523Y-64668571D01*
X103104238Y-64668571D01*
X103028047Y-64706666D01*
X102989952Y-64782857D01*
X102989952Y-65201904D01*
X102989952Y-64782857D02*
X102951857Y-64706666D01*
X102875666Y-64668571D01*
X102761380Y-64668571D01*
X102685190Y-64706666D01*
X102647095Y-64782857D01*
X102647095Y-65201904D01*
X102304238Y-64973333D02*
X101923285Y-64973333D01*
X102380428Y-65201904D02*
X102113761Y-64401904D01*
X101847095Y-65201904D01*
X101580428Y-65201904D02*
X101580428Y-64401904D01*
X101237571Y-65201904D02*
X101237571Y-64782857D01*
X101275666Y-64706666D01*
X101351857Y-64668571D01*
X101466142Y-64668571D01*
X101542333Y-64706666D01*
X101580428Y-64744761D01*
X119218523Y-62521904D02*
X119218523Y-61721904D01*
X118837571Y-62521904D02*
X118837571Y-61721904D01*
X118380428Y-62521904D01*
X118380428Y-61721904D01*
X117389952Y-62445714D02*
X117351857Y-62483809D01*
X117389952Y-62521904D01*
X117428047Y-62483809D01*
X117389952Y-62445714D01*
X117389952Y-62521904D01*
X117389952Y-62026666D02*
X117351857Y-62064761D01*
X117389952Y-62102857D01*
X117428047Y-62064761D01*
X117389952Y-62026666D01*
X117389952Y-62102857D01*
X119218523Y-63061904D02*
X119218523Y-63709523D01*
X119180428Y-63785714D01*
X119142333Y-63823809D01*
X119066142Y-63861904D01*
X118913761Y-63861904D01*
X118837571Y-63823809D01*
X118799476Y-63785714D01*
X118761380Y-63709523D01*
X118761380Y-63061904D01*
X118418523Y-63823809D02*
X118304238Y-63861904D01*
X118113761Y-63861904D01*
X118037571Y-63823809D01*
X117999476Y-63785714D01*
X117961380Y-63709523D01*
X117961380Y-63633333D01*
X117999476Y-63557142D01*
X118037571Y-63519047D01*
X118113761Y-63480952D01*
X118266142Y-63442857D01*
X118342333Y-63404761D01*
X118380428Y-63366666D01*
X118418523Y-63290476D01*
X118418523Y-63214285D01*
X118380428Y-63138095D01*
X118342333Y-63100000D01*
X118266142Y-63061904D01*
X118075666Y-63061904D01*
X117961380Y-63100000D01*
X117351857Y-63442857D02*
X117237571Y-63480952D01*
X117199476Y-63519047D01*
X117161380Y-63595238D01*
X117161380Y-63709523D01*
X117199476Y-63785714D01*
X117237571Y-63823809D01*
X117313761Y-63861904D01*
X117618523Y-63861904D01*
X117618523Y-63061904D01*
X117351857Y-63061904D01*
X117275666Y-63100000D01*
X117237571Y-63138095D01*
X117199476Y-63214285D01*
X117199476Y-63290476D01*
X117237571Y-63366666D01*
X117275666Y-63404761D01*
X117351857Y-63442857D01*
X117618523Y-63442857D01*
X116209000Y-63861904D02*
X116209000Y-63061904D01*
X115942333Y-63633333D01*
X115675666Y-63061904D01*
X115675666Y-63861904D01*
X115294714Y-63861904D02*
X115294714Y-63061904D01*
X114456619Y-63785714D02*
X114494714Y-63823809D01*
X114609000Y-63861904D01*
X114685190Y-63861904D01*
X114799476Y-63823809D01*
X114875666Y-63747619D01*
X114913761Y-63671428D01*
X114951857Y-63519047D01*
X114951857Y-63404761D01*
X114913761Y-63252380D01*
X114875666Y-63176190D01*
X114799476Y-63100000D01*
X114685190Y-63061904D01*
X114609000Y-63061904D01*
X114494714Y-63100000D01*
X114456619Y-63138095D01*
X113656619Y-63861904D02*
X113923285Y-63480952D01*
X114113761Y-63861904D02*
X114113761Y-63061904D01*
X113809000Y-63061904D01*
X113732809Y-63100000D01*
X113694714Y-63138095D01*
X113656619Y-63214285D01*
X113656619Y-63328571D01*
X113694714Y-63404761D01*
X113732809Y-63442857D01*
X113809000Y-63480952D01*
X114113761Y-63480952D01*
X113161380Y-63061904D02*
X113009000Y-63061904D01*
X112932809Y-63100000D01*
X112856619Y-63176190D01*
X112818523Y-63328571D01*
X112818523Y-63595238D01*
X112856619Y-63747619D01*
X112932809Y-63823809D01*
X113009000Y-63861904D01*
X113161380Y-63861904D01*
X113237571Y-63823809D01*
X113313761Y-63747619D01*
X113351857Y-63595238D01*
X113351857Y-63328571D01*
X113313761Y-63176190D01*
X113237571Y-63100000D01*
X113161380Y-63061904D01*
X111599476Y-63442857D02*
X111485190Y-63480952D01*
X111447095Y-63519047D01*
X111409000Y-63595238D01*
X111409000Y-63709523D01*
X111447095Y-63785714D01*
X111485190Y-63823809D01*
X111561380Y-63861904D01*
X111866142Y-63861904D01*
X111866142Y-63061904D01*
X111599476Y-63061904D01*
X111523285Y-63100000D01*
X111485190Y-63138095D01*
X111447095Y-63214285D01*
X111447095Y-63290476D01*
X111485190Y-63366666D01*
X111523285Y-63404761D01*
X111599476Y-63442857D01*
X111866142Y-63442857D01*
X119294714Y-64401904D02*
X118799476Y-64401904D01*
X119066142Y-64706666D01*
X118951857Y-64706666D01*
X118875666Y-64744761D01*
X118837571Y-64782857D01*
X118799476Y-64859047D01*
X118799476Y-65049523D01*
X118837571Y-65125714D01*
X118875666Y-65163809D01*
X118951857Y-65201904D01*
X119180428Y-65201904D01*
X119256619Y-65163809D01*
X119294714Y-65125714D01*
X118456619Y-65125714D02*
X118418523Y-65163809D01*
X118456619Y-65201904D01*
X118494714Y-65163809D01*
X118456619Y-65125714D01*
X118456619Y-65201904D01*
X118151857Y-64401904D02*
X117618523Y-64401904D01*
X117961380Y-65201904D01*
X116932809Y-64401904D02*
X117313761Y-64401904D01*
X117351857Y-64782857D01*
X117313761Y-64744761D01*
X117237571Y-64706666D01*
X117047095Y-64706666D01*
X116970904Y-64744761D01*
X116932809Y-64782857D01*
X116894714Y-64859047D01*
X116894714Y-65049523D01*
X116932809Y-65125714D01*
X116970904Y-65163809D01*
X117047095Y-65201904D01*
X117237571Y-65201904D01*
X117313761Y-65163809D01*
X117351857Y-65125714D01*
X116056619Y-64401904D02*
X115789952Y-65201904D01*
X115523285Y-64401904D01*
X114647095Y-64897142D02*
X114037571Y-64897142D01*
X112704238Y-64401904D02*
X112856619Y-64401904D01*
X112932809Y-64440000D01*
X112970904Y-64478095D01*
X113047095Y-64592380D01*
X113085190Y-64744761D01*
X113085190Y-65049523D01*
X113047095Y-65125714D01*
X113009000Y-65163809D01*
X112932809Y-65201904D01*
X112780428Y-65201904D01*
X112704238Y-65163809D01*
X112666142Y-65125714D01*
X112628047Y-65049523D01*
X112628047Y-64859047D01*
X112666142Y-64782857D01*
X112704238Y-64744761D01*
X112780428Y-64706666D01*
X112932809Y-64706666D01*
X113009000Y-64744761D01*
X113047095Y-64782857D01*
X113085190Y-64859047D01*
X111789952Y-64401904D02*
X111523285Y-65201904D01*
X111256619Y-64401904D01*
%LPC*%
D14*
X110500000Y-80000000D02*
X99500000Y-80000000D01*
X110857142Y-79485714D02*
X110742857Y-79542857D01*
X110514285Y-79542857D01*
X110400000Y-79485714D01*
X110342857Y-79371428D01*
X110342857Y-79314285D01*
X110400000Y-79200000D01*
X110514285Y-79142857D01*
X110685714Y-79142857D01*
X110800000Y-79085714D01*
X110857142Y-78971428D01*
X110857142Y-78914285D01*
X110800000Y-78800000D01*
X110685714Y-78742857D01*
X110514285Y-78742857D01*
X110400000Y-78800000D01*
X109828571Y-79542857D02*
X109828571Y-78742857D01*
X109828571Y-78342857D02*
X109885714Y-78400000D01*
X109828571Y-78457142D01*
X109771428Y-78400000D01*
X109828571Y-78342857D01*
X109828571Y-78457142D01*
X109257142Y-78742857D02*
X109257142Y-79542857D01*
X109257142Y-78857142D02*
X109200000Y-78800000D01*
X109085714Y-78742857D01*
X108914285Y-78742857D01*
X108800000Y-78800000D01*
X108742857Y-78914285D01*
X108742857Y-79542857D01*
X107714285Y-79485714D02*
X107828571Y-79542857D01*
X108057142Y-79542857D01*
X108171428Y-79485714D01*
X108228571Y-79371428D01*
X108228571Y-78914285D01*
X108171428Y-78800000D01*
X108057142Y-78742857D01*
X107828571Y-78742857D01*
X107714285Y-78800000D01*
X107657142Y-78914285D01*
X107657142Y-79028571D01*
X108228571Y-79142857D01*
X106285714Y-79485714D02*
X106171428Y-79542857D01*
X105942857Y-79542857D01*
X105828571Y-79485714D01*
X105771428Y-79371428D01*
X105771428Y-79314285D01*
X105828571Y-79200000D01*
X105942857Y-79142857D01*
X106114285Y-79142857D01*
X106228571Y-79085714D01*
X106285714Y-78971428D01*
X106285714Y-78914285D01*
X106228571Y-78800000D01*
X106114285Y-78742857D01*
X105942857Y-78742857D01*
X105828571Y-78800000D01*
X105428571Y-78742857D02*
X104971428Y-78742857D01*
X105257142Y-78342857D02*
X105257142Y-79371428D01*
X105200000Y-79485714D01*
X105085714Y-79542857D01*
X104971428Y-79542857D01*
X104571428Y-79542857D02*
X104571428Y-78742857D01*
X104571428Y-78342857D02*
X104628571Y-78400000D01*
X104571428Y-78457142D01*
X104514285Y-78400000D01*
X104571428Y-78342857D01*
X104571428Y-78457142D01*
X104000000Y-79542857D02*
X104000000Y-78742857D01*
X104000000Y-78857142D02*
X103942857Y-78800000D01*
X103828571Y-78742857D01*
X103657142Y-78742857D01*
X103542857Y-78800000D01*
X103485714Y-78914285D01*
X103485714Y-79542857D01*
X103485714Y-78914285D02*
X103428571Y-78800000D01*
X103314285Y-78742857D01*
X103142857Y-78742857D01*
X103028571Y-78800000D01*
X102971428Y-78914285D01*
X102971428Y-79542857D01*
X101885714Y-78742857D02*
X101885714Y-79542857D01*
X102400000Y-78742857D02*
X102400000Y-79371428D01*
X102342857Y-79485714D01*
X102228571Y-79542857D01*
X102057142Y-79542857D01*
X101942857Y-79485714D01*
X101885714Y-79428571D01*
X101142857Y-79542857D02*
X101257142Y-79485714D01*
X101314285Y-79371428D01*
X101314285Y-78342857D01*
X100171428Y-78742857D02*
X100171428Y-79542857D01*
X100685714Y-78742857D02*
X100685714Y-79371428D01*
X100628571Y-79485714D01*
X100514285Y-79542857D01*
X100342857Y-79542857D01*
X100228571Y-79485714D01*
X100171428Y-79428571D01*
X99657142Y-79485714D02*
X99542857Y-79542857D01*
X99314285Y-79542857D01*
X99200000Y-79485714D01*
X99142857Y-79371428D01*
X99142857Y-79314285D01*
X99200000Y-79200000D01*
X99314285Y-79142857D01*
X99485714Y-79142857D01*
X99600000Y-79085714D01*
X99657142Y-78971428D01*
X99657142Y-78914285D01*
X99600000Y-78800000D01*
X99485714Y-78742857D01*
X99314285Y-78742857D01*
X99200000Y-78800000D01*
D15*
X115733333Y-84540476D02*
X116828571Y-84540476D01*
X116828571Y-82240476D01*
X114966666Y-84540476D02*
X114966666Y-83007142D01*
X114966666Y-82240476D02*
X115076190Y-82350000D01*
X114966666Y-82459523D01*
X114857142Y-82350000D01*
X114966666Y-82240476D01*
X114966666Y-82459523D01*
X113871428Y-84540476D02*
X113871428Y-82240476D01*
X112995238Y-82240476D01*
X112776190Y-82350000D01*
X112666666Y-82459523D01*
X112557142Y-82678571D01*
X112557142Y-83007142D01*
X112666666Y-83226190D01*
X112776190Y-83335714D01*
X112995238Y-83445238D01*
X113871428Y-83445238D01*
X111242857Y-84540476D02*
X111461904Y-84430952D01*
X111571428Y-84321428D01*
X111680952Y-84102380D01*
X111680952Y-83445238D01*
X111571428Y-83226190D01*
X111461904Y-83116666D01*
X111242857Y-83007142D01*
X110914285Y-83007142D01*
X110695238Y-83116666D01*
X110585714Y-83226190D01*
X110476190Y-83445238D01*
X110476190Y-84102380D01*
X110585714Y-84321428D01*
X110695238Y-84430952D01*
X110914285Y-84540476D01*
X111242857Y-84540476D01*
X106423809Y-84321428D02*
X106533333Y-84430952D01*
X106861904Y-84540476D01*
X107080952Y-84540476D01*
X107409523Y-84430952D01*
X107628571Y-84211904D01*
X107738095Y-83992857D01*
X107847619Y-83554761D01*
X107847619Y-83226190D01*
X107738095Y-82788095D01*
X107628571Y-82569047D01*
X107409523Y-82350000D01*
X107080952Y-82240476D01*
X106861904Y-82240476D01*
X106533333Y-82350000D01*
X106423809Y-82459523D01*
X105438095Y-84540476D02*
X105438095Y-82240476D01*
X105438095Y-83335714D02*
X104123809Y-83335714D01*
X104123809Y-84540476D02*
X104123809Y-82240476D01*
X103138095Y-83883333D02*
X102042857Y-83883333D01*
X103357142Y-84540476D02*
X102590476Y-82240476D01*
X101823809Y-84540476D01*
X99742857Y-84540476D02*
X100509523Y-83445238D01*
X101057142Y-84540476D02*
X101057142Y-82240476D01*
X100180952Y-82240476D01*
X99961904Y-82350000D01*
X99852380Y-82459523D01*
X99742857Y-82678571D01*
X99742857Y-83007142D01*
X99852380Y-83226190D01*
X99961904Y-83335714D01*
X100180952Y-83445238D01*
X101057142Y-83445238D01*
X97552380Y-82350000D02*
X97771428Y-82240476D01*
X98100000Y-82240476D01*
X98428571Y-82350000D01*
X98647619Y-82569047D01*
X98757142Y-82788095D01*
X98866666Y-83226190D01*
X98866666Y-83554761D01*
X98757142Y-83992857D01*
X98647619Y-84211904D01*
X98428571Y-84430952D01*
X98100000Y-84540476D01*
X97880952Y-84540476D01*
X97552380Y-84430952D01*
X97442857Y-84321428D01*
X97442857Y-83554761D01*
X97880952Y-83554761D01*
X96457142Y-83335714D02*
X95690476Y-83335714D01*
X95361904Y-84540476D02*
X96457142Y-84540476D01*
X96457142Y-82240476D01*
X95361904Y-82240476D01*
X93061904Y-84540476D02*
X93828571Y-83445238D01*
X94376190Y-84540476D02*
X94376190Y-82240476D01*
X93500000Y-82240476D01*
X93280952Y-82350000D01*
X93171428Y-82459523D01*
X93061904Y-82678571D01*
X93061904Y-83007142D01*
X93171428Y-83226190D01*
X93280952Y-83335714D01*
X93500000Y-83445238D01*
X94376190Y-83445238D01*
D11*
X88948809Y-86470714D02*
X88948809Y-86423095D01*
X88925000Y-86375476D01*
X88901190Y-86351666D01*
X88853571Y-86327857D01*
X88758333Y-86304047D01*
X88639285Y-86304047D01*
X88544047Y-86327857D01*
X88496428Y-86351666D01*
X88472619Y-86375476D01*
X88448809Y-86423095D01*
X88448809Y-86470714D01*
X88472619Y-86518333D01*
X88496428Y-86542142D01*
X88544047Y-86565952D01*
X88639285Y-86589761D01*
X88758333Y-86589761D01*
X88853571Y-86565952D01*
X88901190Y-86542142D01*
X88925000Y-86518333D01*
X88948809Y-86470714D01*
X88901190Y-86113571D02*
X88925000Y-86089761D01*
X88948809Y-86042142D01*
X88948809Y-85923095D01*
X88925000Y-85875476D01*
X88901190Y-85851666D01*
X88853571Y-85827857D01*
X88805952Y-85827857D01*
X88734523Y-85851666D01*
X88448809Y-86137380D01*
X88448809Y-85827857D01*
X88972619Y-85256428D02*
X88329761Y-85685000D01*
X88448809Y-84827857D02*
X88448809Y-85113571D01*
X88448809Y-84970714D02*
X88948809Y-84970714D01*
X88877380Y-85018333D01*
X88829761Y-85065952D01*
X88805952Y-85113571D01*
X88448809Y-84589761D02*
X88448809Y-84494523D01*
X88472619Y-84446904D01*
X88496428Y-84423095D01*
X88567857Y-84375476D01*
X88663095Y-84351666D01*
X88853571Y-84351666D01*
X88901190Y-84375476D01*
X88925000Y-84399285D01*
X88948809Y-84446904D01*
X88948809Y-84542142D01*
X88925000Y-84589761D01*
X88901190Y-84613571D01*
X88853571Y-84637380D01*
X88734523Y-84637380D01*
X88686904Y-84613571D01*
X88663095Y-84589761D01*
X88639285Y-84542142D01*
X88639285Y-84446904D01*
X88663095Y-84399285D01*
X88686904Y-84375476D01*
X88734523Y-84351666D01*
X88448809Y-81185000D02*
X88686904Y-81351666D01*
X88448809Y-81470714D02*
X88948809Y-81470714D01*
X88948809Y-81280238D01*
X88925000Y-81232619D01*
X88901190Y-81208809D01*
X88853571Y-81185000D01*
X88782142Y-81185000D01*
X88734523Y-81208809D01*
X88710714Y-81232619D01*
X88686904Y-81280238D01*
X88686904Y-81470714D01*
X88710714Y-80970714D02*
X88710714Y-80804047D01*
X88448809Y-80732619D02*
X88448809Y-80970714D01*
X88948809Y-80970714D01*
X88948809Y-80732619D01*
X88948809Y-80589761D02*
X88448809Y-80423095D01*
X88948809Y-80256428D01*
X88448809Y-79446904D02*
X88448809Y-79732619D01*
X88448809Y-79589761D02*
X88948809Y-79589761D01*
X88877380Y-79637380D01*
X88829761Y-79685000D01*
X88805952Y-79732619D01*
X87598809Y-86351666D02*
X87860714Y-86351666D01*
X87908333Y-86375476D01*
X87932142Y-86423095D01*
X87932142Y-86518333D01*
X87908333Y-86565952D01*
X87622619Y-86351666D02*
X87598809Y-86399285D01*
X87598809Y-86518333D01*
X87622619Y-86565952D01*
X87670238Y-86589761D01*
X87717857Y-86589761D01*
X87765476Y-86565952D01*
X87789285Y-86518333D01*
X87789285Y-86399285D01*
X87813095Y-86351666D01*
X87932142Y-86113571D02*
X87598809Y-86113571D01*
X87884523Y-86113571D02*
X87908333Y-86089761D01*
X87932142Y-86042142D01*
X87932142Y-85970714D01*
X87908333Y-85923095D01*
X87860714Y-85899285D01*
X87598809Y-85899285D01*
X87932142Y-85732619D02*
X87932142Y-85542142D01*
X88098809Y-85661190D02*
X87670238Y-85661190D01*
X87622619Y-85637380D01*
X87598809Y-85589761D01*
X87598809Y-85542142D01*
X87598809Y-85304047D02*
X87622619Y-85351666D01*
X87646428Y-85375476D01*
X87694047Y-85399285D01*
X87836904Y-85399285D01*
X87884523Y-85375476D01*
X87908333Y-85351666D01*
X87932142Y-85304047D01*
X87932142Y-85232619D01*
X87908333Y-85185000D01*
X87884523Y-85161190D01*
X87836904Y-85137380D01*
X87694047Y-85137380D01*
X87646428Y-85161190D01*
X87622619Y-85185000D01*
X87598809Y-85232619D01*
X87598809Y-85304047D01*
X87598809Y-84923095D02*
X87932142Y-84923095D01*
X88098809Y-84923095D02*
X88075000Y-84946904D01*
X88051190Y-84923095D01*
X88075000Y-84899285D01*
X88098809Y-84923095D01*
X88051190Y-84923095D01*
X87932142Y-84685000D02*
X87598809Y-84685000D01*
X87884523Y-84685000D02*
X87908333Y-84661190D01*
X87932142Y-84613571D01*
X87932142Y-84542142D01*
X87908333Y-84494523D01*
X87860714Y-84470714D01*
X87598809Y-84470714D01*
X87622619Y-84042142D02*
X87598809Y-84089761D01*
X87598809Y-84185000D01*
X87622619Y-84232619D01*
X87670238Y-84256428D01*
X87860714Y-84256428D01*
X87908333Y-84232619D01*
X87932142Y-84185000D01*
X87932142Y-84089761D01*
X87908333Y-84042142D01*
X87860714Y-84018333D01*
X87813095Y-84018333D01*
X87765476Y-84256428D01*
X87646428Y-83804047D02*
X87622619Y-83780238D01*
X87598809Y-83804047D01*
X87622619Y-83827857D01*
X87646428Y-83804047D01*
X87598809Y-83804047D01*
X87932142Y-83565952D02*
X87432142Y-83565952D01*
X87908333Y-83565952D02*
X87932142Y-83518333D01*
X87932142Y-83423095D01*
X87908333Y-83375476D01*
X87884523Y-83351666D01*
X87836904Y-83327857D01*
X87694047Y-83327857D01*
X87646428Y-83351666D01*
X87622619Y-83375476D01*
X87598809Y-83423095D01*
X87598809Y-83518333D01*
X87622619Y-83565952D01*
X87598809Y-83113571D02*
X87932142Y-83113571D01*
X88098809Y-83113571D02*
X88075000Y-83137380D01*
X88051190Y-83113571D01*
X88075000Y-83089761D01*
X88098809Y-83113571D01*
X88051190Y-83113571D01*
X87932142Y-82875476D02*
X87598809Y-82875476D01*
X87884523Y-82875476D02*
X87908333Y-82851666D01*
X87932142Y-82804047D01*
X87932142Y-82732619D01*
X87908333Y-82685000D01*
X87860714Y-82661190D01*
X87598809Y-82661190D01*
X87932142Y-82494523D02*
X87932142Y-82304047D01*
X88098809Y-82423095D02*
X87670238Y-82423095D01*
X87622619Y-82399285D01*
X87598809Y-82351666D01*
X87598809Y-82304047D01*
X87598809Y-82065952D02*
X87622619Y-82113571D01*
X87646428Y-82137380D01*
X87694047Y-82161190D01*
X87836904Y-82161190D01*
X87884523Y-82137380D01*
X87908333Y-82113571D01*
X87932142Y-82065952D01*
X87932142Y-81994523D01*
X87908333Y-81946904D01*
X87884523Y-81923095D01*
X87836904Y-81899285D01*
X87694047Y-81899285D01*
X87646428Y-81923095D01*
X87622619Y-81946904D01*
X87598809Y-81994523D01*
X87598809Y-82065952D01*
X87932142Y-81470714D02*
X87598809Y-81470714D01*
X87932142Y-81685000D02*
X87670238Y-81685000D01*
X87622619Y-81661190D01*
X87598809Y-81613571D01*
X87598809Y-81542142D01*
X87622619Y-81494523D01*
X87646428Y-81470714D01*
X87932142Y-81304047D02*
X87932142Y-81113571D01*
X88098809Y-81232619D02*
X87670238Y-81232619D01*
X87622619Y-81208809D01*
X87598809Y-81161190D01*
X87598809Y-81113571D01*
X87646428Y-80946904D02*
X87622619Y-80923095D01*
X87598809Y-80946904D01*
X87622619Y-80970714D01*
X87646428Y-80946904D01*
X87598809Y-80946904D01*
X87622619Y-80494523D02*
X87598809Y-80542142D01*
X87598809Y-80637380D01*
X87622619Y-80685000D01*
X87646428Y-80708809D01*
X87694047Y-80732619D01*
X87836904Y-80732619D01*
X87884523Y-80708809D01*
X87908333Y-80685000D01*
X87932142Y-80637380D01*
X87932142Y-80542142D01*
X87908333Y-80494523D01*
X87598809Y-80208809D02*
X87622619Y-80256428D01*
X87646428Y-80280238D01*
X87694047Y-80304047D01*
X87836904Y-80304047D01*
X87884523Y-80280238D01*
X87908333Y-80256428D01*
X87932142Y-80208809D01*
X87932142Y-80137380D01*
X87908333Y-80089761D01*
X87884523Y-80065952D01*
X87836904Y-80042142D01*
X87694047Y-80042142D01*
X87646428Y-80065952D01*
X87622619Y-80089761D01*
X87598809Y-80137380D01*
X87598809Y-80208809D01*
X87598809Y-79827857D02*
X87932142Y-79827857D01*
X87884523Y-79827857D02*
X87908333Y-79804047D01*
X87932142Y-79756428D01*
X87932142Y-79685000D01*
X87908333Y-79637380D01*
X87860714Y-79613571D01*
X87598809Y-79613571D01*
X87860714Y-79613571D02*
X87908333Y-79589761D01*
X87932142Y-79542142D01*
X87932142Y-79470714D01*
X87908333Y-79423095D01*
X87860714Y-79399285D01*
X87598809Y-79399285D01*
D16*
X108500000Y-88928571D02*
X109214285Y-88928571D01*
X109214285Y-87428571D01*
X108000000Y-88928571D02*
X108000000Y-87428571D01*
X106428571Y-88928571D02*
X106928571Y-88214285D01*
X107285714Y-88928571D02*
X107285714Y-87428571D01*
X106714285Y-87428571D01*
X106571428Y-87500000D01*
X106500000Y-87571428D01*
X106428571Y-87714285D01*
X106428571Y-87928571D01*
X106500000Y-88071428D01*
X106571428Y-88142857D01*
X106714285Y-88214285D01*
X107285714Y-88214285D01*
X105857142Y-87571428D02*
X105785714Y-87500000D01*
X105642857Y-87428571D01*
X105285714Y-87428571D01*
X105142857Y-87500000D01*
X105071428Y-87571428D01*
X105000000Y-87714285D01*
X105000000Y-87857142D01*
X105071428Y-88071428D01*
X105928571Y-88928571D01*
X105000000Y-88928571D01*
X103714285Y-87928571D02*
X103714285Y-88928571D01*
X104071428Y-87357142D02*
X104428571Y-88428571D01*
X103500000Y-88428571D01*
X102214285Y-87428571D02*
X102928571Y-87428571D01*
X103000000Y-88142857D01*
X102928571Y-88071428D01*
X102785714Y-88000000D01*
X102428571Y-88000000D01*
X102285714Y-88071428D01*
X102214285Y-88142857D01*
X102142857Y-88285714D01*
X102142857Y-88642857D01*
X102214285Y-88785714D01*
X102285714Y-88857142D01*
X102428571Y-88928571D01*
X102785714Y-88928571D01*
X102928571Y-88857142D01*
X103000000Y-88785714D01*
X101214285Y-87428571D02*
X101071428Y-87428571D01*
X100928571Y-87500000D01*
X100857142Y-87571428D01*
X100785714Y-87714285D01*
X100714285Y-88000000D01*
X100714285Y-88357142D01*
X100785714Y-88642857D01*
X100857142Y-88785714D01*
X100928571Y-88857142D01*
X101071428Y-88928571D01*
X101214285Y-88928571D01*
X101357142Y-88857142D01*
X101428571Y-88785714D01*
X101500000Y-88642857D01*
X101571428Y-88357142D01*
X101571428Y-88000000D01*
X101500000Y-87714285D01*
X101428571Y-87571428D01*
X101357142Y-87500000D01*
X101214285Y-87428571D01*
D17*
G04 #@! TO.C,J2*
X109079999Y-68000000D03*
D18*
X106539999Y-68000000D03*
X103999999Y-68000000D03*
X101459999Y-68000000D03*
G04 #@! TD*
D17*
G04 #@! TO.C,J3*
X121920000Y-62230000D03*
D18*
X121920000Y-64770000D03*
G04 #@! TD*
D17*
G04 #@! TO.C,TP1*
X121920000Y-76200000D03*
D18*
X121920000Y-78740000D03*
G04 #@! TD*
G04 #@! TO.C,TP2*
X88265000Y-64770000D03*
D17*
X88265000Y-62230000D03*
G04 #@! TD*
D19*
G04 #@! TO.C,SW1*
X88170000Y-74500000D03*
X88170000Y-77500000D03*
G04 #@! TD*
M02*
